<?xml version="1.0" encoding="utf-8" standalone="no"?>
<!DOCTYPE svg PUBLIC "-//W3C//DTD SVG 1.1//EN"
  "http://www.w3.org/Graphics/SVG/1.1/DTD/svg11.dtd">
<svg xmlns:xlink="http://www.w3.org/1999/xlink" width="928.242656pt" height="358.176041pt" viewBox="0 0 928.242656 358.176041" xmlns="http://www.w3.org/2000/svg" version="1.1">
 <metadata>
  <rdf:RDF xmlns:dc="http://purl.org/dc/elements/1.1/" xmlns:cc="http://creativecommons.org/ns#" xmlns:rdf="http://www.w3.org/1999/02/22-rdf-syntax-ns#">
   <cc:Work>
    <dc:type rdf:resource="http://purl.org/dc/dcmitype/StillImage"/>
    <dc:date>2026-07-06T00:03:39.437736</dc:date>
    <dc:format>image/svg+xml</dc:format>
    <dc:creator>
     <cc:Agent>
      <dc:title>Matplotlib v3.11.0, https://matplotlib.org/</dc:title>
     </cc:Agent>
    </dc:creator>
   </cc:Work>
  </rdf:RDF>
 </metadata>
 <defs>
  <style type="text/css">*{stroke-linejoin: round; stroke-linecap: butt}</style>
 </defs>
 <g id="figure_1">
  <g id="patch_1">
   <path d="M 0 358.176041 
L 928.242656 358.176041 
L 928.242656 0 
L 0 0 
z
" style="fill: #ffffff"/>
  </g>
  <g id="axes_1">
   <g id="patch_2">
    <path d="M 40.925 305.356051 
L 307.169342 305.356051 
L 307.169342 66.770812 
L 40.925 66.770812 
z
" style="fill: #ffffff"/>
   </g>
   <g id="patch_3">
    <path d="M 53.027016 305.356051 
L 76.450271 305.356051 
L 76.450271 113.195854 
L 53.027016 113.195854 
z
" clip-path="url(#p528f1b574a)" style="fill: #356da8"/>
   </g>
   <g id="patch_4">
    <path d="M 118.091615 305.356051 
L 141.514871 305.356051 
L 141.514871 172.526704 
L 118.091615 172.526704 
z
" clip-path="url(#p528f1b574a)" style="fill: #356da8"/>
   </g>
   <g id="patch_5">
    <path d="M 183.156215 305.356051 
L 206.579471 305.356051 
L 206.579471 113.788367 
L 183.156215 113.788367 
z
" clip-path="url(#p528f1b574a)" style="fill: #356da8"/>
   </g>
   <g id="patch_6">
    <path d="M 248.220815 305.356051 
L 271.644071 305.356051 
L 271.644071 112.059232 
L 248.220815 112.059232 
z
" clip-path="url(#p528f1b574a)" style="fill: #356da8"/>
   </g>
   <g id="patch_7">
    <path d="M 76.450271 305.356051 
L 99.873527 305.356051 
L 99.873527 199.026353 
L 76.450271 199.026353 
z
" clip-path="url(#p528f1b574a)" style="fill: #b65f2a"/>
   </g>
   <g id="patch_8">
    <path d="M 141.514871 305.356051 
L 164.938127 305.356051 
L 164.938127 199.026353 
L 141.514871 199.026353 
z
" clip-path="url(#p528f1b574a)" style="fill: #b65f2a"/>
   </g>
   <g id="patch_9">
    <path d="M 206.579471 305.356051 
L 230.002727 305.356051 
L 230.002727 118.364709 
L 206.579471 118.364709 
z
" clip-path="url(#p528f1b574a)" style="fill: #b65f2a"/>
   </g>
   <g id="patch_10">
    <path d="M 271.644071 305.356051 
L 295.067327 305.356051 
L 295.067327 116.727387 
L 271.644071 116.727387 
z
" clip-path="url(#p528f1b574a)" style="fill: #b65f2a"/>
   </g>
   <g id="matplotlib.axis_1">
    <g id="xtick_1">
     <g id="line2d_1">
      <defs>
       <path id="m70809799c5" d="M 0 0 
L 0 3.5 
" style="stroke: #000000; stroke-width: 0.8"/>
      </defs>
      <g>
       <use xlink:href="#m70809799c5" x="76.450271" y="305.356051" style="stroke: #000000; stroke-width: 0.8"/>
      </g>
     </g>
     <g id="text_1">
      <!-- Kaggle+CM -->
      <g transform="translate(22.751609 343.809241) rotate(-25) scale(0.1 -0.1)">
       <defs>
        <path id="DejaVuSans-2e" d="M 628 4666 
L 1259 4666 
L 1259 2694 
L 3353 4666 
L 4166 4666 
L 1850 2491 
L 4331 0 
L 3500 0 
L 1259 2247 
L 1259 0 
L 628 0 
L 628 4666 
z
" transform="scale(0.015625)"/>
        <path id="DejaVuSans-44" d="M 2194 1759 
Q 1497 1759 1228 1600 
Q 959 1441 959 1056 
Q 959 750 1161 570 
Q 1363 391 1709 391 
Q 2188 391 2477 730 
Q 2766 1069 2766 1631 
L 2766 1759 
L 2194 1759 
z
M 3341 1997 
L 3341 0 
L 2766 0 
L 2766 531 
Q 2569 213 2275 61 
Q 1981 -91 1556 -91 
Q 1019 -91 701 211 
Q 384 513 384 1019 
Q 384 1609 779 1909 
Q 1175 2209 1959 2209 
L 2766 2209 
L 2766 2266 
Q 2766 2663 2505 2880 
Q 2244 3097 1772 3097 
Q 1472 3097 1187 3025 
Q 903 2953 641 2809 
L 641 3341 
Q 956 3463 1253 3523 
Q 1550 3584 1831 3584 
Q 2591 3584 2966 3190 
Q 3341 2797 3341 1997 
z
" transform="scale(0.015625)"/>
        <path id="DejaVuSans-4a" d="M 2906 1791 
Q 2906 2416 2648 2759 
Q 2391 3103 1925 3103 
Q 1463 3103 1205 2759 
Q 947 2416 947 1791 
Q 947 1169 1205 825 
Q 1463 481 1925 481 
Q 2391 481 2648 825 
Q 2906 1169 2906 1791 
z
M 3481 434 
Q 3481 -459 3084 -895 
Q 2688 -1331 1869 -1331 
Q 1566 -1331 1297 -1286 
Q 1028 -1241 775 -1147 
L 775 -588 
Q 1028 -725 1275 -790 
Q 1522 -856 1778 -856 
Q 2344 -856 2625 -561 
Q 2906 -266 2906 331 
L 2906 616 
Q 2728 306 2450 153 
Q 2172 0 1784 0 
Q 1141 0 747 490 
Q 353 981 353 1791 
Q 353 2603 747 3093 
Q 1141 3584 1784 3584 
Q 2172 3584 2450 3431 
Q 2728 3278 2906 2969 
L 2906 3500 
L 3481 3500 
L 3481 434 
z
" transform="scale(0.015625)"/>
        <path id="DejaVuSans-4f" d="M 603 4863 
L 1178 4863 
L 1178 0 
L 603 0 
L 603 4863 
z
" transform="scale(0.015625)"/>
        <path id="DejaVuSans-48" d="M 3597 1894 
L 3597 1613 
L 953 1613 
Q 991 1019 1311 708 
Q 1631 397 2203 397 
Q 2534 397 2845 478 
Q 3156 559 3463 722 
L 3463 178 
Q 3153 47 2828 -22 
Q 2503 -91 2169 -91 
Q 1331 -91 842 396 
Q 353 884 353 1716 
Q 353 2575 817 3079 
Q 1281 3584 2069 3584 
Q 2775 3584 3186 3129 
Q 3597 2675 3597 1894 
z
M 3022 2063 
Q 3016 2534 2758 2815 
Q 2500 3097 2075 3097 
Q 1594 3097 1305 2825 
Q 1016 2553 972 2059 
L 3022 2063 
z
" transform="scale(0.015625)"/>
        <path id="DejaVuSans-e" d="M 2944 4013 
L 2944 2272 
L 4684 2272 
L 4684 1741 
L 2944 1741 
L 2944 0 
L 2419 0 
L 2419 1741 
L 678 1741 
L 678 2272 
L 2419 2272 
L 2419 4013 
L 2944 4013 
z
" transform="scale(0.015625)"/>
        <path id="DejaVuSans-26" d="M 4122 4306 
L 4122 3641 
Q 3803 3938 3442 4084 
Q 3081 4231 2675 4231 
Q 1875 4231 1450 3742 
Q 1025 3253 1025 2328 
Q 1025 1406 1450 917 
Q 1875 428 2675 428 
Q 3081 428 3442 575 
Q 3803 722 4122 1019 
L 4122 359 
Q 3791 134 3420 21 
Q 3050 -91 2638 -91 
Q 1578 -91 968 557 
Q 359 1206 359 2328 
Q 359 3453 968 4101 
Q 1578 4750 2638 4750 
Q 3056 4750 3426 4639 
Q 3797 4528 4122 4306 
z
" transform="scale(0.015625)"/>
        <path id="DejaVuSans-30" d="M 628 4666 
L 1569 4666 
L 2759 1491 
L 3956 4666 
L 4897 4666 
L 4897 0 
L 4281 0 
L 4281 4097 
L 3078 897 
L 2444 897 
L 1241 4097 
L 1241 0 
L 628 0 
L 628 4666 
z
" transform="scale(0.015625)"/>
       </defs>
       <use xlink:href="#DejaVuSans-2e"/>
       <use xlink:href="#DejaVuSans-44" transform="translate(63.828125 0)"/>
       <use xlink:href="#DejaVuSans-4a" transform="translate(125.109375 0)"/>
       <use xlink:href="#DejaVuSans-4a" transform="translate(188.59375 0)"/>
       <use xlink:href="#DejaVuSans-4f" transform="translate(252.078125 0)"/>
       <use xlink:href="#DejaVuSans-48" transform="translate(279.859375 0)"/>
       <use xlink:href="#DejaVuSans-e" transform="translate(341.390625 0)"/>
       <use xlink:href="#DejaVuSans-26" transform="translate(425.1875 0)"/>
       <use xlink:href="#DejaVuSans-30" transform="translate(495.015625 0)"/>
      </g>
     </g>
    </g>
    <g id="xtick_2">
     <g id="line2d_2">
      <g>
       <use xlink:href="#m70809799c5" x="141.514871" y="305.356051" style="stroke: #000000; stroke-width: 0.8"/>
      </g>
     </g>
     <g id="text_2">
      <!-- CM+THAR -->
      <g transform="translate(93.908296 340.967746) rotate(-25) scale(0.1 -0.1)">
       <defs>
        <path id="DejaVuSans-37" d="M -19 4666 
L 3928 4666 
L 3928 4134 
L 2272 4134 
L 2272 0 
L 1638 0 
L 1638 4134 
L -19 4134 
L -19 4666 
z
" transform="scale(0.015625)"/>
        <path id="DejaVuSans-2b" d="M 628 4666 
L 1259 4666 
L 1259 2753 
L 3553 2753 
L 3553 4666 
L 4184 4666 
L 4184 0 
L 3553 0 
L 3553 2222 
L 1259 2222 
L 1259 0 
L 628 0 
L 628 4666 
z
" transform="scale(0.015625)"/>
        <path id="DejaVuSans-24" d="M 2188 4044 
L 1331 1722 
L 3047 1722 
L 2188 4044 
z
M 1831 4666 
L 2547 4666 
L 4325 0 
L 3669 0 
L 3244 1197 
L 1141 1197 
L 716 0 
L 50 0 
L 1831 4666 
z
" transform="scale(0.015625)"/>
        <path id="DejaVuSans-35" d="M 2841 2188 
Q 3044 2119 3236 1894 
Q 3428 1669 3622 1275 
L 4263 0 
L 3584 0 
L 2988 1197 
Q 2756 1666 2539 1819 
Q 2322 1972 1947 1972 
L 1259 1972 
L 1259 0 
L 628 0 
L 628 4666 
L 2053 4666 
Q 2853 4666 3247 4331 
Q 3641 3997 3641 3322 
Q 3641 2881 3436 2590 
Q 3231 2300 2841 2188 
z
M 1259 4147 
L 1259 2491 
L 2053 2491 
Q 2509 2491 2742 2702 
Q 2975 2913 2975 3322 
Q 2975 3731 2742 3939 
Q 2509 4147 2053 4147 
L 1259 4147 
z
" transform="scale(0.015625)"/>
       </defs>
       <use xlink:href="#DejaVuSans-26"/>
       <use xlink:href="#DejaVuSans-30" transform="translate(69.828125 0)"/>
       <use xlink:href="#DejaVuSans-e" transform="translate(156.109375 0)"/>
       <use xlink:href="#DejaVuSans-37" transform="translate(239.90625 0)"/>
       <use xlink:href="#DejaVuSans-2b" transform="translate(300.984375 0)"/>
       <use xlink:href="#DejaVuSans-24" transform="translate(376.1875 0)"/>
       <use xlink:href="#DejaVuSans-35" transform="translate(444.59375 0)"/>
      </g>
     </g>
    </g>
    <g id="xtick_3">
     <g id="line2d_3">
      <g>
       <use xlink:href="#m70809799c5" x="206.579471" y="305.356051" style="stroke: #000000; stroke-width: 0.8"/>
      </g>
     </g>
     <g id="text_3">
      <!-- Kaggle+THAR -->
      <g transform="translate(142.180712 348.798778) rotate(-25) scale(0.1 -0.1)">
       <use xlink:href="#DejaVuSans-2e"/>
       <use xlink:href="#DejaVuSans-44" transform="translate(63.828125 0)"/>
       <use xlink:href="#DejaVuSans-4a" transform="translate(125.109375 0)"/>
       <use xlink:href="#DejaVuSans-4a" transform="translate(188.59375 0)"/>
       <use xlink:href="#DejaVuSans-4f" transform="translate(252.078125 0)"/>
       <use xlink:href="#DejaVuSans-48" transform="translate(279.859375 0)"/>
       <use xlink:href="#DejaVuSans-e" transform="translate(341.390625 0)"/>
       <use xlink:href="#DejaVuSans-37" transform="translate(425.1875 0)"/>
       <use xlink:href="#DejaVuSans-2b" transform="translate(486.265625 0)"/>
       <use xlink:href="#DejaVuSans-24" transform="translate(561.46875 0)"/>
       <use xlink:href="#DejaVuSans-35" transform="translate(629.875 0)"/>
      </g>
     </g>
    </g>
    <g id="xtick_4">
     <g id="line2d_4">
      <g>
       <use xlink:href="#m70809799c5" x="271.644071" y="305.356051" style="stroke: #000000; stroke-width: 0.8"/>
      </g>
     </g>
     <g id="text_4">
      <!-- All three -->
      <g transform="translate(232.536964 337.005087) rotate(-25) scale(0.1 -0.1)">
       <defs>
        <path id="DejaVuSans-3" transform="scale(0.015625)"/>
        <path id="DejaVuSans-57" d="M 1172 4494 
L 1172 3500 
L 2356 3500 
L 2356 3053 
L 1172 3053 
L 1172 1153 
Q 1172 725 1289 603 
Q 1406 481 1766 481 
L 2356 481 
L 2356 0 
L 1766 0 
Q 1100 0 847 248 
Q 594 497 594 1153 
L 594 3053 
L 172 3053 
L 172 3500 
L 594 3500 
L 594 4494 
L 1172 4494 
z
" transform="scale(0.015625)"/>
        <path id="DejaVuSans-4b" d="M 3513 2113 
L 3513 0 
L 2938 0 
L 2938 2094 
Q 2938 2591 2744 2837 
Q 2550 3084 2163 3084 
Q 1697 3084 1428 2787 
Q 1159 2491 1159 1978 
L 1159 0 
L 581 0 
L 581 4863 
L 1159 4863 
L 1159 2956 
Q 1366 3272 1645 3428 
Q 1925 3584 2291 3584 
Q 2894 3584 3203 3211 
Q 3513 2838 3513 2113 
z
" transform="scale(0.015625)"/>
        <path id="DejaVuSans-55" d="M 2631 2963 
Q 2534 3019 2420 3045 
Q 2306 3072 2169 3072 
Q 1681 3072 1420 2755 
Q 1159 2438 1159 1844 
L 1159 0 
L 581 0 
L 581 3500 
L 1159 3500 
L 1159 2956 
Q 1341 3275 1631 3429 
Q 1922 3584 2338 3584 
Q 2397 3584 2469 3576 
Q 2541 3569 2628 3553 
L 2631 2963 
z
" transform="scale(0.015625)"/>
       </defs>
       <use xlink:href="#DejaVuSans-24"/>
       <use xlink:href="#DejaVuSans-4f" transform="translate(68.40625 0)"/>
       <use xlink:href="#DejaVuSans-4f" transform="translate(96.1875 0)"/>
       <use xlink:href="#DejaVuSans-3" transform="translate(123.96875 0)"/>
       <use xlink:href="#DejaVuSans-57" transform="translate(155.75 0)"/>
       <use xlink:href="#DejaVuSans-4b" transform="translate(194.953125 0)"/>
       <use xlink:href="#DejaVuSans-55" transform="translate(258.328125 0)"/>
       <use xlink:href="#DejaVuSans-48" transform="translate(297.234375 0)"/>
       <use xlink:href="#DejaVuSans-48" transform="translate(358.765625 0)"/>
      </g>
     </g>
    </g>
   </g>
   <g id="matplotlib.axis_2">
    <g id="ytick_1">
     <g id="line2d_5">
      <path d="M 40.925 305.356051 
L 307.169342 305.356051 
" clip-path="url(#p528f1b574a)" style="fill: none; stroke: #b0b0b0; stroke-opacity: 0.25; stroke-width: 0.8; stroke-linecap: square"/>
     </g>
     <g id="line2d_6">
      <defs>
       <path id="m55d41dc300" d="M 0 0 
L -3.5 0 
" style="stroke: #000000; stroke-width: 0.8"/>
      </defs>
      <g>
       <use xlink:href="#m55d41dc300" x="40.925" y="305.356051" style="stroke: #000000; stroke-width: 0.8"/>
      </g>
     </g>
     <g id="text_5">
      <!-- 0 -->
      <g transform="translate(27.5625 309.154879) scale(0.1 -0.1)">
       <defs>
        <path id="DejaVuSans-13" d="M 2034 4250 
Q 1547 4250 1301 3770 
Q 1056 3291 1056 2328 
Q 1056 1369 1301 889 
Q 1547 409 2034 409 
Q 2525 409 2770 889 
Q 3016 1369 3016 2328 
Q 3016 3291 2770 3770 
Q 2525 4250 2034 4250 
z
M 2034 4750 
Q 2819 4750 3233 4129 
Q 3647 3509 3647 2328 
Q 3647 1150 3233 529 
Q 2819 -91 2034 -91 
Q 1250 -91 836 529 
Q 422 1150 422 2328 
Q 422 3509 836 4129 
Q 1250 4750 2034 4750 
z
" transform="scale(0.015625)"/>
       </defs>
       <use xlink:href="#DejaVuSans-13"/>
      </g>
     </g>
    </g>
    <g id="ytick_2">
     <g id="line2d_7">
      <path d="M 40.925 277.287199 
L 307.169342 277.287199 
" clip-path="url(#p528f1b574a)" style="fill: none; stroke: #b0b0b0; stroke-opacity: 0.25; stroke-width: 0.8; stroke-linecap: square"/>
     </g>
     <g id="line2d_8">
      <g>
       <use xlink:href="#m55d41dc300" x="40.925" y="277.287199" style="stroke: #000000; stroke-width: 0.8"/>
      </g>
     </g>
     <g id="text_6">
      <!-- 10 -->
      <g transform="translate(21.2 281.086027) scale(0.1 -0.1)">
       <defs>
        <path id="DejaVuSans-14" d="M 794 531 
L 1825 531 
L 1825 4091 
L 703 3866 
L 703 4441 
L 1819 4666 
L 2450 4666 
L 2450 531 
L 3481 531 
L 3481 0 
L 794 0 
L 794 531 
z
" transform="scale(0.015625)"/>
       </defs>
       <use xlink:href="#DejaVuSans-14"/>
       <use xlink:href="#DejaVuSans-13" transform="translate(63.625 0)"/>
      </g>
     </g>
    </g>
    <g id="ytick_3">
     <g id="line2d_9">
      <path d="M 40.925 249.218348 
L 307.169342 249.218348 
" clip-path="url(#p528f1b574a)" style="fill: none; stroke: #b0b0b0; stroke-opacity: 0.25; stroke-width: 0.8; stroke-linecap: square"/>
     </g>
     <g id="line2d_10">
      <g>
       <use xlink:href="#m55d41dc300" x="40.925" y="249.218348" style="stroke: #000000; stroke-width: 0.8"/>
      </g>
     </g>
     <g id="text_7">
      <!-- 20 -->
      <g transform="translate(21.2 253.017176) scale(0.1 -0.1)">
       <defs>
        <path id="DejaVuSans-15" d="M 1228 531 
L 3431 531 
L 3431 0 
L 469 0 
L 469 531 
Q 828 903 1448 1529 
Q 2069 2156 2228 2338 
Q 2531 2678 2651 2914 
Q 2772 3150 2772 3378 
Q 2772 3750 2511 3984 
Q 2250 4219 1831 4219 
Q 1534 4219 1204 4116 
Q 875 4013 500 3803 
L 500 4441 
Q 881 4594 1212 4672 
Q 1544 4750 1819 4750 
Q 2544 4750 2975 4387 
Q 3406 4025 3406 3419 
Q 3406 3131 3298 2873 
Q 3191 2616 2906 2266 
Q 2828 2175 2409 1742 
Q 1991 1309 1228 531 
z
" transform="scale(0.015625)"/>
       </defs>
       <use xlink:href="#DejaVuSans-15"/>
       <use xlink:href="#DejaVuSans-13" transform="translate(63.625 0)"/>
      </g>
     </g>
    </g>
    <g id="ytick_4">
     <g id="line2d_11">
      <path d="M 40.925 221.149496 
L 307.169342 221.149496 
" clip-path="url(#p528f1b574a)" style="fill: none; stroke: #b0b0b0; stroke-opacity: 0.25; stroke-width: 0.8; stroke-linecap: square"/>
     </g>
     <g id="line2d_12">
      <g>
       <use xlink:href="#m55d41dc300" x="40.925" y="221.149496" style="stroke: #000000; stroke-width: 0.8"/>
      </g>
     </g>
     <g id="text_8">
      <!-- 30 -->
      <g transform="translate(21.2 224.948324) scale(0.1 -0.1)">
       <defs>
        <path id="DejaVuSans-16" d="M 2597 2516 
Q 3050 2419 3304 2112 
Q 3559 1806 3559 1356 
Q 3559 666 3084 287 
Q 2609 -91 1734 -91 
Q 1441 -91 1130 -33 
Q 819 25 488 141 
L 488 750 
Q 750 597 1062 519 
Q 1375 441 1716 441 
Q 2309 441 2620 675 
Q 2931 909 2931 1356 
Q 2931 1769 2642 2001 
Q 2353 2234 1838 2234 
L 1294 2234 
L 1294 2753 
L 1863 2753 
Q 2328 2753 2575 2939 
Q 2822 3125 2822 3475 
Q 2822 3834 2567 4026 
Q 2313 4219 1838 4219 
Q 1578 4219 1281 4162 
Q 984 4106 628 3988 
L 628 4550 
Q 988 4650 1302 4700 
Q 1616 4750 1894 4750 
Q 2613 4750 3031 4423 
Q 3450 4097 3450 3541 
Q 3450 3153 3228 2886 
Q 3006 2619 2597 2516 
z
" transform="scale(0.015625)"/>
       </defs>
       <use xlink:href="#DejaVuSans-16"/>
       <use xlink:href="#DejaVuSans-13" transform="translate(63.625 0)"/>
      </g>
     </g>
    </g>
    <g id="ytick_5">
     <g id="line2d_13">
      <path d="M 40.925 193.080645 
L 307.169342 193.080645 
" clip-path="url(#p528f1b574a)" style="fill: none; stroke: #b0b0b0; stroke-opacity: 0.25; stroke-width: 0.8; stroke-linecap: square"/>
     </g>
     <g id="line2d_14">
      <g>
       <use xlink:href="#m55d41dc300" x="40.925" y="193.080645" style="stroke: #000000; stroke-width: 0.8"/>
      </g>
     </g>
     <g id="text_9">
      <!-- 40 -->
      <g transform="translate(21.2 196.879473) scale(0.1 -0.1)">
       <defs>
        <path id="DejaVuSans-17" d="M 2419 4116 
L 825 1625 
L 2419 1625 
L 2419 4116 
z
M 2253 4666 
L 3047 4666 
L 3047 1625 
L 3713 1625 
L 3713 1100 
L 3047 1100 
L 3047 0 
L 2419 0 
L 2419 1100 
L 313 1100 
L 313 1709 
L 2253 4666 
z
" transform="scale(0.015625)"/>
       </defs>
       <use xlink:href="#DejaVuSans-17"/>
       <use xlink:href="#DejaVuSans-13" transform="translate(63.625 0)"/>
      </g>
     </g>
    </g>
    <g id="ytick_6">
     <g id="line2d_15">
      <path d="M 40.925 165.011793 
L 307.169342 165.011793 
" clip-path="url(#p528f1b574a)" style="fill: none; stroke: #b0b0b0; stroke-opacity: 0.25; stroke-width: 0.8; stroke-linecap: square"/>
     </g>
     <g id="line2d_16">
      <g>
       <use xlink:href="#m55d41dc300" x="40.925" y="165.011793" style="stroke: #000000; stroke-width: 0.8"/>
      </g>
     </g>
     <g id="text_10">
      <!-- 50 -->
      <g transform="translate(21.2 168.810621) scale(0.1 -0.1)">
       <defs>
        <path id="DejaVuSans-18" d="M 691 4666 
L 3169 4666 
L 3169 4134 
L 1269 4134 
L 1269 2991 
Q 1406 3038 1543 3061 
Q 1681 3084 1819 3084 
Q 2600 3084 3056 2656 
Q 3513 2228 3513 1497 
Q 3513 744 3044 326 
Q 2575 -91 1722 -91 
Q 1428 -91 1123 -41 
Q 819 9 494 109 
L 494 744 
Q 775 591 1075 516 
Q 1375 441 1709 441 
Q 2250 441 2565 725 
Q 2881 1009 2881 1497 
Q 2881 1984 2565 2268 
Q 2250 2553 1709 2553 
Q 1456 2553 1204 2497 
Q 953 2441 691 2322 
L 691 4666 
z
" transform="scale(0.015625)"/>
       </defs>
       <use xlink:href="#DejaVuSans-18"/>
       <use xlink:href="#DejaVuSans-13" transform="translate(63.625 0)"/>
      </g>
     </g>
    </g>
    <g id="ytick_7">
     <g id="line2d_17">
      <path d="M 40.925 136.942941 
L 307.169342 136.942941 
" clip-path="url(#p528f1b574a)" style="fill: none; stroke: #b0b0b0; stroke-opacity: 0.25; stroke-width: 0.8; stroke-linecap: square"/>
     </g>
     <g id="line2d_18">
      <g>
       <use xlink:href="#m55d41dc300" x="40.925" y="136.942941" style="stroke: #000000; stroke-width: 0.8"/>
      </g>
     </g>
     <g id="text_11">
      <!-- 60 -->
      <g transform="translate(21.2 140.74177) scale(0.1 -0.1)">
       <defs>
        <path id="DejaVuSans-19" d="M 2113 2584 
Q 1688 2584 1439 2293 
Q 1191 2003 1191 1497 
Q 1191 994 1439 701 
Q 1688 409 2113 409 
Q 2538 409 2786 701 
Q 3034 994 3034 1497 
Q 3034 2003 2786 2293 
Q 2538 2584 2113 2584 
z
M 3366 4563 
L 3366 3988 
Q 3128 4100 2886 4159 
Q 2644 4219 2406 4219 
Q 1781 4219 1451 3797 
Q 1122 3375 1075 2522 
Q 1259 2794 1537 2939 
Q 1816 3084 2150 3084 
Q 2853 3084 3261 2657 
Q 3669 2231 3669 1497 
Q 3669 778 3244 343 
Q 2819 -91 2113 -91 
Q 1303 -91 875 529 
Q 447 1150 447 2328 
Q 447 3434 972 4092 
Q 1497 4750 2381 4750 
Q 2619 4750 2861 4703 
Q 3103 4656 3366 4563 
z
" transform="scale(0.015625)"/>
       </defs>
       <use xlink:href="#DejaVuSans-19"/>
       <use xlink:href="#DejaVuSans-13" transform="translate(63.625 0)"/>
      </g>
     </g>
    </g>
    <g id="ytick_8">
     <g id="line2d_19">
      <path d="M 40.925 108.87409 
L 307.169342 108.87409 
" clip-path="url(#p528f1b574a)" style="fill: none; stroke: #b0b0b0; stroke-opacity: 0.25; stroke-width: 0.8; stroke-linecap: square"/>
     </g>
     <g id="line2d_20">
      <g>
       <use xlink:href="#m55d41dc300" x="40.925" y="108.87409" style="stroke: #000000; stroke-width: 0.8"/>
      </g>
     </g>
     <g id="text_12">
      <!-- 70 -->
      <g transform="translate(21.2 112.672918) scale(0.1 -0.1)">
       <defs>
        <path id="DejaVuSans-1a" d="M 525 4666 
L 3525 4666 
L 3525 4397 
L 1831 0 
L 1172 0 
L 2766 4134 
L 525 4134 
L 525 4666 
z
" transform="scale(0.015625)"/>
       </defs>
       <use xlink:href="#DejaVuSans-1a"/>
       <use xlink:href="#DejaVuSans-13" transform="translate(63.625 0)"/>
      </g>
     </g>
    </g>
    <g id="ytick_9">
     <g id="line2d_21">
      <path d="M 40.925 80.805238 
L 307.169342 80.805238 
" clip-path="url(#p528f1b574a)" style="fill: none; stroke: #b0b0b0; stroke-opacity: 0.25; stroke-width: 0.8; stroke-linecap: square"/>
     </g>
     <g id="line2d_22">
      <g>
       <use xlink:href="#m55d41dc300" x="40.925" y="80.805238" style="stroke: #000000; stroke-width: 0.8"/>
      </g>
     </g>
     <g id="text_13">
      <!-- 80 -->
      <g transform="translate(21.2 84.604066) scale(0.1 -0.1)">
       <defs>
        <path id="DejaVuSans-1b" d="M 2034 2216 
Q 1584 2216 1326 1975 
Q 1069 1734 1069 1313 
Q 1069 891 1326 650 
Q 1584 409 2034 409 
Q 2484 409 2743 651 
Q 3003 894 3003 1313 
Q 3003 1734 2745 1975 
Q 2488 2216 2034 2216 
z
M 1403 2484 
Q 997 2584 770 2862 
Q 544 3141 544 3541 
Q 544 4100 942 4425 
Q 1341 4750 2034 4750 
Q 2731 4750 3128 4425 
Q 3525 4100 3525 3541 
Q 3525 3141 3298 2862 
Q 3072 2584 2669 2484 
Q 3125 2378 3379 2068 
Q 3634 1759 3634 1313 
Q 3634 634 3220 271 
Q 2806 -91 2034 -91 
Q 1263 -91 848 271 
Q 434 634 434 1313 
Q 434 1759 690 2068 
Q 947 2378 1403 2484 
z
M 1172 3481 
Q 1172 3119 1398 2916 
Q 1625 2713 2034 2713 
Q 2441 2713 2670 2916 
Q 2900 3119 2900 3481 
Q 2900 3844 2670 4047 
Q 2441 4250 2034 4250 
Q 1625 4250 1398 4047 
Q 1172 3844 1172 3481 
z
" transform="scale(0.015625)"/>
       </defs>
       <use xlink:href="#DejaVuSans-1b"/>
       <use xlink:href="#DejaVuSans-13" transform="translate(63.625 0)"/>
      </g>
     </g>
    </g>
    <g id="text_14">
     <!-- Macro F1 (%) -->
     <g transform="translate(14.797656 219.082963) rotate(-90) scale(0.1 -0.1)">
      <defs>
       <path id="DejaVuSans-46" d="M 3122 3366 
L 3122 2828 
Q 2878 2963 2633 3030 
Q 2388 3097 2138 3097 
Q 1578 3097 1268 2742 
Q 959 2388 959 1747 
Q 959 1106 1268 751 
Q 1578 397 2138 397 
Q 2388 397 2633 464 
Q 2878 531 3122 666 
L 3122 134 
Q 2881 22 2623 -34 
Q 2366 -91 2075 -91 
Q 1284 -91 818 406 
Q 353 903 353 1747 
Q 353 2603 823 3093 
Q 1294 3584 2113 3584 
Q 2378 3584 2631 3529 
Q 2884 3475 3122 3366 
z
" transform="scale(0.015625)"/>
       <path id="DejaVuSans-52" d="M 1959 3097 
Q 1497 3097 1228 2736 
Q 959 2375 959 1747 
Q 959 1119 1226 758 
Q 1494 397 1959 397 
Q 2419 397 2687 759 
Q 2956 1122 2956 1747 
Q 2956 2369 2687 2733 
Q 2419 3097 1959 3097 
z
M 1959 3584 
Q 2709 3584 3137 3096 
Q 3566 2609 3566 1747 
Q 3566 888 3137 398 
Q 2709 -91 1959 -91 
Q 1206 -91 779 398 
Q 353 888 353 1747 
Q 353 2609 779 3096 
Q 1206 3584 1959 3584 
z
" transform="scale(0.015625)"/>
       <path id="DejaVuSans-29" d="M 628 4666 
L 3309 4666 
L 3309 4134 
L 1259 4134 
L 1259 2759 
L 3109 2759 
L 3109 2228 
L 1259 2228 
L 1259 0 
L 628 0 
L 628 4666 
z
" transform="scale(0.015625)"/>
       <path id="DejaVuSans-b" d="M 1984 4856 
Q 1566 4138 1362 3434 
Q 1159 2731 1159 2009 
Q 1159 1288 1364 580 
Q 1569 -128 1984 -844 
L 1484 -844 
Q 1016 -109 783 600 
Q 550 1309 550 2009 
Q 550 2706 781 3412 
Q 1013 4119 1484 4856 
L 1984 4856 
z
" transform="scale(0.015625)"/>
       <path id="DejaVuSans-8" d="M 4653 2053 
Q 4381 2053 4226 1822 
Q 4072 1591 4072 1178 
Q 4072 772 4226 539 
Q 4381 306 4653 306 
Q 4919 306 5073 539 
Q 5228 772 5228 1178 
Q 5228 1588 5073 1820 
Q 4919 2053 4653 2053 
z
M 4653 2450 
Q 5147 2450 5437 2106 
Q 5728 1763 5728 1178 
Q 5728 594 5436 251 
Q 5144 -91 4653 -91 
Q 4153 -91 3862 251 
Q 3572 594 3572 1178 
Q 3572 1766 3864 2108 
Q 4156 2450 4653 2450 
z
M 1428 4353 
Q 1159 4353 1004 4120 
Q 850 3888 850 3481 
Q 850 3069 1003 2837 
Q 1156 2606 1428 2606 
Q 1700 2606 1854 2837 
Q 2009 3069 2009 3481 
Q 2009 3884 1853 4118 
Q 1697 4353 1428 4353 
z
M 4250 4750 
L 4750 4750 
L 1831 -91 
L 1331 -91 
L 4250 4750 
z
M 1428 4750 
Q 1922 4750 2215 4408 
Q 2509 4066 2509 3481 
Q 2509 2891 2217 2550 
Q 1925 2209 1428 2209 
Q 931 2209 642 2551 
Q 353 2894 353 3481 
Q 353 4063 643 4406 
Q 934 4750 1428 4750 
z
" transform="scale(0.015625)"/>
       <path id="DejaVuSans-c" d="M 513 4856 
L 1013 4856 
Q 1481 4119 1714 3412 
Q 1947 2706 1947 2009 
Q 1947 1309 1714 600 
Q 1481 -109 1013 -844 
L 513 -844 
Q 928 -128 1133 580 
Q 1338 1288 1338 2009 
Q 1338 2731 1133 3434 
Q 928 4138 513 4856 
z
" transform="scale(0.015625)"/>
      </defs>
      <use xlink:href="#DejaVuSans-30"/>
      <use xlink:href="#DejaVuSans-44" transform="translate(86.28125 0)"/>
      <use xlink:href="#DejaVuSans-46" transform="translate(147.5625 0)"/>
      <use xlink:href="#DejaVuSans-55" transform="translate(202.546875 0)"/>
      <use xlink:href="#DejaVuSans-52" transform="translate(241.453125 0)"/>
      <use xlink:href="#DejaVuSans-3" transform="translate(302.640625 0)"/>
      <use xlink:href="#DejaVuSans-29" transform="translate(334.421875 0)"/>
      <use xlink:href="#DejaVuSans-14" transform="translate(391.9375 0)"/>
      <use xlink:href="#DejaVuSans-3" transform="translate(455.5625 0)"/>
      <use xlink:href="#DejaVuSans-b" transform="translate(487.34375 0)"/>
      <use xlink:href="#DejaVuSans-8" transform="translate(526.359375 0)"/>
      <use xlink:href="#DejaVuSans-c" transform="translate(621.375 0)"/>
     </g>
    </g>
   </g>
   <g id="patch_11">
    <path d="M 40.925 305.356051 
L 40.925 66.770812 
" style="fill: none; stroke: #000000; stroke-width: 0.8; stroke-linejoin: miter; stroke-linecap: square"/>
   </g>
   <g id="patch_12">
    <path d="M 307.169342 305.356051 
L 307.169342 66.770812 
" style="fill: none; stroke: #000000; stroke-width: 0.8; stroke-linejoin: miter; stroke-linecap: square"/>
   </g>
   <g id="patch_13">
    <path d="M 40.925 305.356051 
L 307.169342 305.356051 
" style="fill: none; stroke: #000000; stroke-width: 0.8; stroke-linejoin: miter; stroke-linecap: square"/>
   </g>
   <g id="patch_14">
    <path d="M 40.925 66.770812 
L 307.169342 66.770812 
" style="fill: none; stroke: #000000; stroke-width: 0.8; stroke-linejoin: miter; stroke-linecap: square"/>
   </g>
   <g id="text_15">
    <!-- Kaggle -->
    <g transform="translate(153.563734 60.770812) scale(0.12 -0.12)">
     <use xlink:href="#DejaVuSans-2e"/>
     <use xlink:href="#DejaVuSans-44" transform="translate(63.828125 0)"/>
     <use xlink:href="#DejaVuSans-4a" transform="translate(125.109375 0)"/>
     <use xlink:href="#DejaVuSans-4a" transform="translate(188.59375 0)"/>
     <use xlink:href="#DejaVuSans-4f" transform="translate(252.078125 0)"/>
     <use xlink:href="#DejaVuSans-48" transform="translate(279.859375 0)"/>
    </g>
   </g>
  </g>
  <g id="axes_2">
   <g id="patch_15">
    <path d="M 347.861657 305.356051 
L 614.105999 305.356051 
L 614.105999 66.770812 
L 347.861657 66.770812 
z
" style="fill: #ffffff"/>
   </g>
   <g id="patch_16">
    <path d="M 359.963672 305.356051 
L 383.386928 305.356051 
L 383.386928 104.567932 
L 359.963672 104.567932 
z
" clip-path="url(#pf6ae1d5fe6)" style="fill: #356da8"/>
   </g>
   <g id="patch_17">
    <path d="M 425.028272 305.356051 
L 448.451528 305.356051 
L 448.451528 93.101044 
L 425.028272 93.101044 
z
" clip-path="url(#pf6ae1d5fe6)" style="fill: #356da8"/>
   </g>
   <g id="patch_18">
    <path d="M 490.092872 305.356051 
L 513.516128 305.356051 
L 513.516128 153.557792 
L 490.092872 153.557792 
z
" clip-path="url(#pf6ae1d5fe6)" style="fill: #356da8"/>
   </g>
   <g id="patch_19">
    <path d="M 555.157472 305.356051 
L 578.580728 305.356051 
L 578.580728 96.278866 
L 555.157472 96.278866 
z
" clip-path="url(#pf6ae1d5fe6)" style="fill: #356da8"/>
   </g>
   <g id="patch_20">
    <path d="M 383.386928 305.356051 
L 406.810184 305.356051 
L 406.810184 195.217658 
L 383.386928 195.217658 
z
" clip-path="url(#pf6ae1d5fe6)" style="fill: #b65f2a"/>
   </g>
   <g id="patch_21">
    <path d="M 448.451528 305.356051 
L 471.874784 305.356051 
L 471.874784 195.217658 
L 448.451528 195.217658 
z
" clip-path="url(#pf6ae1d5fe6)" style="fill: #b65f2a"/>
   </g>
   <g id="patch_22">
    <path d="M 513.516128 305.356051 
L 536.939384 305.356051 
L 536.939384 138.774576 
L 513.516128 138.774576 
z
" clip-path="url(#pf6ae1d5fe6)" style="fill: #b65f2a"/>
   </g>
   <g id="patch_23">
    <path d="M 578.580728 305.356051 
L 602.003984 305.356051 
L 602.003984 97.021339 
L 578.580728 97.021339 
z
" clip-path="url(#pf6ae1d5fe6)" style="fill: #b65f2a"/>
   </g>
   <g id="matplotlib.axis_3">
    <g id="xtick_5">
     <g id="line2d_23">
      <g>
       <use xlink:href="#m70809799c5" x="383.386928" y="305.356051" style="stroke: #000000; stroke-width: 0.8"/>
      </g>
     </g>
     <g id="text_16">
      <!-- Kaggle+CM -->
      <g transform="translate(329.688266 343.809241) rotate(-25) scale(0.1 -0.1)">
       <use xlink:href="#DejaVuSans-2e"/>
       <use xlink:href="#DejaVuSans-44" transform="translate(63.828125 0)"/>
       <use xlink:href="#DejaVuSans-4a" transform="translate(125.109375 0)"/>
       <use xlink:href="#DejaVuSans-4a" transform="translate(188.59375 0)"/>
       <use xlink:href="#DejaVuSans-4f" transform="translate(252.078125 0)"/>
       <use xlink:href="#DejaVuSans-48" transform="translate(279.859375 0)"/>
       <use xlink:href="#DejaVuSans-e" transform="translate(341.390625 0)"/>
       <use xlink:href="#DejaVuSans-26" transform="translate(425.1875 0)"/>
       <use xlink:href="#DejaVuSans-30" transform="translate(495.015625 0)"/>
      </g>
     </g>
    </g>
    <g id="xtick_6">
     <g id="line2d_24">
      <g>
       <use xlink:href="#m70809799c5" x="448.451528" y="305.356051" style="stroke: #000000; stroke-width: 0.8"/>
      </g>
     </g>
     <g id="text_17">
      <!-- CM+THAR -->
      <g transform="translate(400.844953 340.967746) rotate(-25) scale(0.1 -0.1)">
       <use xlink:href="#DejaVuSans-26"/>
       <use xlink:href="#DejaVuSans-30" transform="translate(69.828125 0)"/>
       <use xlink:href="#DejaVuSans-e" transform="translate(156.109375 0)"/>
       <use xlink:href="#DejaVuSans-37" transform="translate(239.90625 0)"/>
       <use xlink:href="#DejaVuSans-2b" transform="translate(300.984375 0)"/>
       <use xlink:href="#DejaVuSans-24" transform="translate(376.1875 0)"/>
       <use xlink:href="#DejaVuSans-35" transform="translate(444.59375 0)"/>
      </g>
     </g>
    </g>
    <g id="xtick_7">
     <g id="line2d_25">
      <g>
       <use xlink:href="#m70809799c5" x="513.516128" y="305.356051" style="stroke: #000000; stroke-width: 0.8"/>
      </g>
     </g>
     <g id="text_18">
      <!-- Kaggle+THAR -->
      <g transform="translate(449.117369 348.798778) rotate(-25) scale(0.1 -0.1)">
       <use xlink:href="#DejaVuSans-2e"/>
       <use xlink:href="#DejaVuSans-44" transform="translate(63.828125 0)"/>
       <use xlink:href="#DejaVuSans-4a" transform="translate(125.109375 0)"/>
       <use xlink:href="#DejaVuSans-4a" transform="translate(188.59375 0)"/>
       <use xlink:href="#DejaVuSans-4f" transform="translate(252.078125 0)"/>
       <use xlink:href="#DejaVuSans-48" transform="translate(279.859375 0)"/>
       <use xlink:href="#DejaVuSans-e" transform="translate(341.390625 0)"/>
       <use xlink:href="#DejaVuSans-37" transform="translate(425.1875 0)"/>
       <use xlink:href="#DejaVuSans-2b" transform="translate(486.265625 0)"/>
       <use xlink:href="#DejaVuSans-24" transform="translate(561.46875 0)"/>
       <use xlink:href="#DejaVuSans-35" transform="translate(629.875 0)"/>
      </g>
     </g>
    </g>
    <g id="xtick_8">
     <g id="line2d_26">
      <g>
       <use xlink:href="#m70809799c5" x="578.580728" y="305.356051" style="stroke: #000000; stroke-width: 0.8"/>
      </g>
     </g>
     <g id="text_19">
      <!-- All three -->
      <g transform="translate(539.47362 337.005087) rotate(-25) scale(0.1 -0.1)">
       <use xlink:href="#DejaVuSans-24"/>
       <use xlink:href="#DejaVuSans-4f" transform="translate(68.40625 0)"/>
       <use xlink:href="#DejaVuSans-4f" transform="translate(96.1875 0)"/>
       <use xlink:href="#DejaVuSans-3" transform="translate(123.96875 0)"/>
       <use xlink:href="#DejaVuSans-57" transform="translate(155.75 0)"/>
       <use xlink:href="#DejaVuSans-4b" transform="translate(194.953125 0)"/>
       <use xlink:href="#DejaVuSans-55" transform="translate(258.328125 0)"/>
       <use xlink:href="#DejaVuSans-48" transform="translate(297.234375 0)"/>
       <use xlink:href="#DejaVuSans-48" transform="translate(358.765625 0)"/>
      </g>
     </g>
    </g>
   </g>
   <g id="matplotlib.axis_4">
    <g id="ytick_10">
     <g id="line2d_27">
      <path d="M 347.861657 305.356051 
L 614.105999 305.356051 
" clip-path="url(#pf6ae1d5fe6)" style="fill: none; stroke: #b0b0b0; stroke-opacity: 0.25; stroke-width: 0.8; stroke-linecap: square"/>
     </g>
     <g id="line2d_28">
      <g>
       <use xlink:href="#m55d41dc300" x="347.861657" y="305.356051" style="stroke: #000000; stroke-width: 0.8"/>
      </g>
     </g>
    </g>
    <g id="ytick_11">
     <g id="line2d_29">
      <path d="M 347.861657 277.287199 
L 614.105999 277.287199 
" clip-path="url(#pf6ae1d5fe6)" style="fill: none; stroke: #b0b0b0; stroke-opacity: 0.25; stroke-width: 0.8; stroke-linecap: square"/>
     </g>
     <g id="line2d_30">
      <g>
       <use xlink:href="#m55d41dc300" x="347.861657" y="277.287199" style="stroke: #000000; stroke-width: 0.8"/>
      </g>
     </g>
    </g>
    <g id="ytick_12">
     <g id="line2d_31">
      <path d="M 347.861657 249.218348 
L 614.105999 249.218348 
" clip-path="url(#pf6ae1d5fe6)" style="fill: none; stroke: #b0b0b0; stroke-opacity: 0.25; stroke-width: 0.8; stroke-linecap: square"/>
     </g>
     <g id="line2d_32">
      <g>
       <use xlink:href="#m55d41dc300" x="347.861657" y="249.218348" style="stroke: #000000; stroke-width: 0.8"/>
      </g>
     </g>
    </g>
    <g id="ytick_13">
     <g id="line2d_33">
      <path d="M 347.861657 221.149496 
L 614.105999 221.149496 
" clip-path="url(#pf6ae1d5fe6)" style="fill: none; stroke: #b0b0b0; stroke-opacity: 0.25; stroke-width: 0.8; stroke-linecap: square"/>
     </g>
     <g id="line2d_34">
      <g>
       <use xlink:href="#m55d41dc300" x="347.861657" y="221.149496" style="stroke: #000000; stroke-width: 0.8"/>
      </g>
     </g>
    </g>
    <g id="ytick_14">
     <g id="line2d_35">
      <path d="M 347.861657 193.080645 
L 614.105999 193.080645 
" clip-path="url(#pf6ae1d5fe6)" style="fill: none; stroke: #b0b0b0; stroke-opacity: 0.25; stroke-width: 0.8; stroke-linecap: square"/>
     </g>
     <g id="line2d_36">
      <g>
       <use xlink:href="#m55d41dc300" x="347.861657" y="193.080645" style="stroke: #000000; stroke-width: 0.8"/>
      </g>
     </g>
    </g>
    <g id="ytick_15">
     <g id="line2d_37">
      <path d="M 347.861657 165.011793 
L 614.105999 165.011793 
" clip-path="url(#pf6ae1d5fe6)" style="fill: none; stroke: #b0b0b0; stroke-opacity: 0.25; stroke-width: 0.8; stroke-linecap: square"/>
     </g>
     <g id="line2d_38">
      <g>
       <use xlink:href="#m55d41dc300" x="347.861657" y="165.011793" style="stroke: #000000; stroke-width: 0.8"/>
      </g>
     </g>
    </g>
    <g id="ytick_16">
     <g id="line2d_39">
      <path d="M 347.861657 136.942941 
L 614.105999 136.942941 
" clip-path="url(#pf6ae1d5fe6)" style="fill: none; stroke: #b0b0b0; stroke-opacity: 0.25; stroke-width: 0.8; stroke-linecap: square"/>
     </g>
     <g id="line2d_40">
      <g>
       <use xlink:href="#m55d41dc300" x="347.861657" y="136.942941" style="stroke: #000000; stroke-width: 0.8"/>
      </g>
     </g>
    </g>
    <g id="ytick_17">
     <g id="line2d_41">
      <path d="M 347.861657 108.87409 
L 614.105999 108.87409 
" clip-path="url(#pf6ae1d5fe6)" style="fill: none; stroke: #b0b0b0; stroke-opacity: 0.25; stroke-width: 0.8; stroke-linecap: square"/>
     </g>
     <g id="line2d_42">
      <g>
       <use xlink:href="#m55d41dc300" x="347.861657" y="108.87409" style="stroke: #000000; stroke-width: 0.8"/>
      </g>
     </g>
    </g>
    <g id="ytick_18">
     <g id="line2d_43">
      <path d="M 347.861657 80.805238 
L 614.105999 80.805238 
" clip-path="url(#pf6ae1d5fe6)" style="fill: none; stroke: #b0b0b0; stroke-opacity: 0.25; stroke-width: 0.8; stroke-linecap: square"/>
     </g>
     <g id="line2d_44">
      <g>
       <use xlink:href="#m55d41dc300" x="347.861657" y="80.805238" style="stroke: #000000; stroke-width: 0.8"/>
      </g>
     </g>
    </g>
    <g id="text_20">
     <!-- Macro F1 (%) -->
     <g transform="translate(337.959313 219.082963) rotate(-90) scale(0.1 -0.1)">
      <use xlink:href="#DejaVuSans-30"/>
      <use xlink:href="#DejaVuSans-44" transform="translate(86.28125 0)"/>
      <use xlink:href="#DejaVuSans-46" transform="translate(147.5625 0)"/>
      <use xlink:href="#DejaVuSans-55" transform="translate(202.546875 0)"/>
      <use xlink:href="#DejaVuSans-52" transform="translate(241.453125 0)"/>
      <use xlink:href="#DejaVuSans-3" transform="translate(302.640625 0)"/>
      <use xlink:href="#DejaVuSans-29" transform="translate(334.421875 0)"/>
      <use xlink:href="#DejaVuSans-14" transform="translate(391.9375 0)"/>
      <use xlink:href="#DejaVuSans-3" transform="translate(455.5625 0)"/>
      <use xlink:href="#DejaVuSans-b" transform="translate(487.34375 0)"/>
      <use xlink:href="#DejaVuSans-8" transform="translate(526.359375 0)"/>
      <use xlink:href="#DejaVuSans-c" transform="translate(621.375 0)"/>
     </g>
    </g>
   </g>
   <g id="patch_24">
    <path d="M 347.861657 305.356051 
L 347.861657 66.770812 
" style="fill: none; stroke: #000000; stroke-width: 0.8; stroke-linejoin: miter; stroke-linecap: square"/>
   </g>
   <g id="patch_25">
    <path d="M 614.105999 305.356051 
L 614.105999 66.770812 
" style="fill: none; stroke: #000000; stroke-width: 0.8; stroke-linejoin: miter; stroke-linecap: square"/>
   </g>
   <g id="patch_26">
    <path d="M 347.861657 305.356051 
L 614.105999 305.356051 
" style="fill: none; stroke: #000000; stroke-width: 0.8; stroke-linejoin: miter; stroke-linecap: square"/>
   </g>
   <g id="patch_27">
    <path d="M 347.861657 66.770812 
L 614.105999 66.770812 
" style="fill: none; stroke: #000000; stroke-width: 0.8; stroke-linejoin: miter; stroke-linecap: square"/>
   </g>
   <g id="text_21">
    <!-- CM -->
    <g transform="translate(471.617266 60.770812) scale(0.12 -0.12)">
     <use xlink:href="#DejaVuSans-26"/>
     <use xlink:href="#DejaVuSans-30" transform="translate(69.828125 0)"/>
    </g>
   </g>
  </g>
  <g id="axes_3">
   <g id="patch_28">
    <path d="M 654.798314 305.356051 
L 921.042656 305.356051 
L 921.042656 66.770812 
L 654.798314 66.770812 
z
" style="fill: #ffffff"/>
   </g>
   <g id="patch_29">
    <path d="M 666.900329 305.356051 
L 690.323585 305.356051 
L 690.323585 167.01553 
L 666.900329 167.01553 
z
" clip-path="url(#p57f46b13e3)" style="fill: #356da8"/>
   </g>
   <g id="patch_30">
    <path d="M 731.964929 305.356051 
L 755.388185 305.356051 
L 755.388185 93.138858 
L 731.964929 93.138858 
z
" clip-path="url(#p57f46b13e3)" style="fill: #356da8"/>
   </g>
   <g id="patch_31">
    <path d="M 797.029529 305.356051 
L 820.452785 305.356051 
L 820.452785 95.026689 
L 797.029529 95.026689 
z
" clip-path="url(#p57f46b13e3)" style="fill: #356da8"/>
   </g>
   <g id="patch_32">
    <path d="M 862.094129 305.356051 
L 885.517385 305.356051 
L 885.517385 97.555521 
L 862.094129 97.555521 
z
" clip-path="url(#p57f46b13e3)" style="fill: #356da8"/>
   </g>
   <g id="patch_33">
    <path d="M 690.323585 305.356051 
L 713.746841 305.356051 
L 713.746841 208.399604 
L 690.323585 208.399604 
z
" clip-path="url(#p57f46b13e3)" style="fill: #b65f2a"/>
   </g>
   <g id="patch_34">
    <path d="M 755.388185 305.356051 
L 778.811441 305.356051 
L 778.811441 208.399604 
L 755.388185 208.399604 
z
" clip-path="url(#p57f46b13e3)" style="fill: #b65f2a"/>
   </g>
   <g id="patch_35">
    <path d="M 820.452785 305.356051 
L 843.876041 305.356051 
L 843.876041 90.690633 
L 820.452785 90.690633 
z
" clip-path="url(#p57f46b13e3)" style="fill: #b65f2a"/>
   </g>
   <g id="patch_36">
    <path d="M 885.517385 305.356051 
L 908.940641 305.356051 
L 908.940641 91.339126 
L 885.517385 91.339126 
z
" clip-path="url(#p57f46b13e3)" style="fill: #b65f2a"/>
   </g>
   <g id="matplotlib.axis_5">
    <g id="xtick_9">
     <g id="line2d_45">
      <g>
       <use xlink:href="#m70809799c5" x="690.323585" y="305.356051" style="stroke: #000000; stroke-width: 0.8"/>
      </g>
     </g>
     <g id="text_22">
      <!-- Kaggle+CM -->
      <g transform="translate(636.624923 343.809241) rotate(-25) scale(0.1 -0.1)">
       <use xlink:href="#DejaVuSans-2e"/>
       <use xlink:href="#DejaVuSans-44" transform="translate(63.828125 0)"/>
       <use xlink:href="#DejaVuSans-4a" transform="translate(125.109375 0)"/>
       <use xlink:href="#DejaVuSans-4a" transform="translate(188.59375 0)"/>
       <use xlink:href="#DejaVuSans-4f" transform="translate(252.078125 0)"/>
       <use xlink:href="#DejaVuSans-48" transform="translate(279.859375 0)"/>
       <use xlink:href="#DejaVuSans-e" transform="translate(341.390625 0)"/>
       <use xlink:href="#DejaVuSans-26" transform="translate(425.1875 0)"/>
       <use xlink:href="#DejaVuSans-30" transform="translate(495.015625 0)"/>
      </g>
     </g>
    </g>
    <g id="xtick_10">
     <g id="line2d_46">
      <g>
       <use xlink:href="#m70809799c5" x="755.388185" y="305.356051" style="stroke: #000000; stroke-width: 0.8"/>
      </g>
     </g>
     <g id="text_23">
      <!-- CM+THAR -->
      <g transform="translate(707.78161 340.967746) rotate(-25) scale(0.1 -0.1)">
       <use xlink:href="#DejaVuSans-26"/>
       <use xlink:href="#DejaVuSans-30" transform="translate(69.828125 0)"/>
       <use xlink:href="#DejaVuSans-e" transform="translate(156.109375 0)"/>
       <use xlink:href="#DejaVuSans-37" transform="translate(239.90625 0)"/>
       <use xlink:href="#DejaVuSans-2b" transform="translate(300.984375 0)"/>
       <use xlink:href="#DejaVuSans-24" transform="translate(376.1875 0)"/>
       <use xlink:href="#DejaVuSans-35" transform="translate(444.59375 0)"/>
      </g>
     </g>
    </g>
    <g id="xtick_11">
     <g id="line2d_47">
      <g>
       <use xlink:href="#m70809799c5" x="820.452785" y="305.356051" style="stroke: #000000; stroke-width: 0.8"/>
      </g>
     </g>
     <g id="text_24">
      <!-- Kaggle+THAR -->
      <g transform="translate(756.054026 348.798778) rotate(-25) scale(0.1 -0.1)">
       <use xlink:href="#DejaVuSans-2e"/>
       <use xlink:href="#DejaVuSans-44" transform="translate(63.828125 0)"/>
       <use xlink:href="#DejaVuSans-4a" transform="translate(125.109375 0)"/>
       <use xlink:href="#DejaVuSans-4a" transform="translate(188.59375 0)"/>
       <use xlink:href="#DejaVuSans-4f" transform="translate(252.078125 0)"/>
       <use xlink:href="#DejaVuSans-48" transform="translate(279.859375 0)"/>
       <use xlink:href="#DejaVuSans-e" transform="translate(341.390625 0)"/>
       <use xlink:href="#DejaVuSans-37" transform="translate(425.1875 0)"/>
       <use xlink:href="#DejaVuSans-2b" transform="translate(486.265625 0)"/>
       <use xlink:href="#DejaVuSans-24" transform="translate(561.46875 0)"/>
       <use xlink:href="#DejaVuSans-35" transform="translate(629.875 0)"/>
      </g>
     </g>
    </g>
    <g id="xtick_12">
     <g id="line2d_48">
      <g>
       <use xlink:href="#m70809799c5" x="885.517385" y="305.356051" style="stroke: #000000; stroke-width: 0.8"/>
      </g>
     </g>
     <g id="text_25">
      <!-- All three -->
      <g transform="translate(846.410277 337.005087) rotate(-25) scale(0.1 -0.1)">
       <use xlink:href="#DejaVuSans-24"/>
       <use xlink:href="#DejaVuSans-4f" transform="translate(68.40625 0)"/>
       <use xlink:href="#DejaVuSans-4f" transform="translate(96.1875 0)"/>
       <use xlink:href="#DejaVuSans-3" transform="translate(123.96875 0)"/>
       <use xlink:href="#DejaVuSans-57" transform="translate(155.75 0)"/>
       <use xlink:href="#DejaVuSans-4b" transform="translate(194.953125 0)"/>
       <use xlink:href="#DejaVuSans-55" transform="translate(258.328125 0)"/>
       <use xlink:href="#DejaVuSans-48" transform="translate(297.234375 0)"/>
       <use xlink:href="#DejaVuSans-48" transform="translate(358.765625 0)"/>
      </g>
     </g>
    </g>
   </g>
   <g id="matplotlib.axis_6">
    <g id="ytick_19">
     <g id="line2d_49">
      <path d="M 654.798314 305.356051 
L 921.042656 305.356051 
" clip-path="url(#p57f46b13e3)" style="fill: none; stroke: #b0b0b0; stroke-opacity: 0.25; stroke-width: 0.8; stroke-linecap: square"/>
     </g>
     <g id="line2d_50">
      <g>
       <use xlink:href="#m55d41dc300" x="654.798314" y="305.356051" style="stroke: #000000; stroke-width: 0.8"/>
      </g>
     </g>
    </g>
    <g id="ytick_20">
     <g id="line2d_51">
      <path d="M 654.798314 277.287199 
L 921.042656 277.287199 
" clip-path="url(#p57f46b13e3)" style="fill: none; stroke: #b0b0b0; stroke-opacity: 0.25; stroke-width: 0.8; stroke-linecap: square"/>
     </g>
     <g id="line2d_52">
      <g>
       <use xlink:href="#m55d41dc300" x="654.798314" y="277.287199" style="stroke: #000000; stroke-width: 0.8"/>
      </g>
     </g>
    </g>
    <g id="ytick_21">
     <g id="line2d_53">
      <path d="M 654.798314 249.218348 
L 921.042656 249.218348 
" clip-path="url(#p57f46b13e3)" style="fill: none; stroke: #b0b0b0; stroke-opacity: 0.25; stroke-width: 0.8; stroke-linecap: square"/>
     </g>
     <g id="line2d_54">
      <g>
       <use xlink:href="#m55d41dc300" x="654.798314" y="249.218348" style="stroke: #000000; stroke-width: 0.8"/>
      </g>
     </g>
    </g>
    <g id="ytick_22">
     <g id="line2d_55">
      <path d="M 654.798314 221.149496 
L 921.042656 221.149496 
" clip-path="url(#p57f46b13e3)" style="fill: none; stroke: #b0b0b0; stroke-opacity: 0.25; stroke-width: 0.8; stroke-linecap: square"/>
     </g>
     <g id="line2d_56">
      <g>
       <use xlink:href="#m55d41dc300" x="654.798314" y="221.149496" style="stroke: #000000; stroke-width: 0.8"/>
      </g>
     </g>
    </g>
    <g id="ytick_23">
     <g id="line2d_57">
      <path d="M 654.798314 193.080645 
L 921.042656 193.080645 
" clip-path="url(#p57f46b13e3)" style="fill: none; stroke: #b0b0b0; stroke-opacity: 0.25; stroke-width: 0.8; stroke-linecap: square"/>
     </g>
     <g id="line2d_58">
      <g>
       <use xlink:href="#m55d41dc300" x="654.798314" y="193.080645" style="stroke: #000000; stroke-width: 0.8"/>
      </g>
     </g>
    </g>
    <g id="ytick_24">
     <g id="line2d_59">
      <path d="M 654.798314 165.011793 
L 921.042656 165.011793 
" clip-path="url(#p57f46b13e3)" style="fill: none; stroke: #b0b0b0; stroke-opacity: 0.25; stroke-width: 0.8; stroke-linecap: square"/>
     </g>
     <g id="line2d_60">
      <g>
       <use xlink:href="#m55d41dc300" x="654.798314" y="165.011793" style="stroke: #000000; stroke-width: 0.8"/>
      </g>
     </g>
    </g>
    <g id="ytick_25">
     <g id="line2d_61">
      <path d="M 654.798314 136.942941 
L 921.042656 136.942941 
" clip-path="url(#p57f46b13e3)" style="fill: none; stroke: #b0b0b0; stroke-opacity: 0.25; stroke-width: 0.8; stroke-linecap: square"/>
     </g>
     <g id="line2d_62">
      <g>
       <use xlink:href="#m55d41dc300" x="654.798314" y="136.942941" style="stroke: #000000; stroke-width: 0.8"/>
      </g>
     </g>
    </g>
    <g id="ytick_26">
     <g id="line2d_63">
      <path d="M 654.798314 108.87409 
L 921.042656 108.87409 
" clip-path="url(#p57f46b13e3)" style="fill: none; stroke: #b0b0b0; stroke-opacity: 0.25; stroke-width: 0.8; stroke-linecap: square"/>
     </g>
     <g id="line2d_64">
      <g>
       <use xlink:href="#m55d41dc300" x="654.798314" y="108.87409" style="stroke: #000000; stroke-width: 0.8"/>
      </g>
     </g>
    </g>
    <g id="ytick_27">
     <g id="line2d_65">
      <path d="M 654.798314 80.805238 
L 921.042656 80.805238 
" clip-path="url(#p57f46b13e3)" style="fill: none; stroke: #b0b0b0; stroke-opacity: 0.25; stroke-width: 0.8; stroke-linecap: square"/>
     </g>
     <g id="line2d_66">
      <g>
       <use xlink:href="#m55d41dc300" x="654.798314" y="80.805238" style="stroke: #000000; stroke-width: 0.8"/>
      </g>
     </g>
    </g>
    <g id="text_26">
     <!-- Macro F1 (%) -->
     <g transform="translate(644.89597 219.082963) rotate(-90) scale(0.1 -0.1)">
      <use xlink:href="#DejaVuSans-30"/>
      <use xlink:href="#DejaVuSans-44" transform="translate(86.28125 0)"/>
      <use xlink:href="#DejaVuSans-46" transform="translate(147.5625 0)"/>
      <use xlink:href="#DejaVuSans-55" transform="translate(202.546875 0)"/>
      <use xlink:href="#DejaVuSans-52" transform="translate(241.453125 0)"/>
      <use xlink:href="#DejaVuSans-3" transform="translate(302.640625 0)"/>
      <use xlink:href="#DejaVuSans-29" transform="translate(334.421875 0)"/>
      <use xlink:href="#DejaVuSans-14" transform="translate(391.9375 0)"/>
      <use xlink:href="#DejaVuSans-3" transform="translate(455.5625 0)"/>
      <use xlink:href="#DejaVuSans-b" transform="translate(487.34375 0)"/>
      <use xlink:href="#DejaVuSans-8" transform="translate(526.359375 0)"/>
      <use xlink:href="#DejaVuSans-c" transform="translate(621.375 0)"/>
     </g>
    </g>
   </g>
   <g id="patch_37">
    <path d="M 654.798314 305.356051 
L 654.798314 66.770812 
" style="fill: none; stroke: #000000; stroke-width: 0.8; stroke-linejoin: miter; stroke-linecap: square"/>
   </g>
   <g id="patch_38">
    <path d="M 921.042656 305.356051 
L 921.042656 66.770812 
" style="fill: none; stroke: #000000; stroke-width: 0.8; stroke-linejoin: miter; stroke-linecap: square"/>
   </g>
   <g id="patch_39">
    <path d="M 654.798314 305.356051 
L 921.042656 305.356051 
" style="fill: none; stroke: #000000; stroke-width: 0.8; stroke-linejoin: miter; stroke-linecap: square"/>
   </g>
   <g id="patch_40">
    <path d="M 654.798314 66.770812 
L 921.042656 66.770812 
" style="fill: none; stroke: #000000; stroke-width: 0.8; stroke-linejoin: miter; stroke-linecap: square"/>
   </g>
   <g id="text_27">
    <!-- THAR -->
    <g transform="translate(771.470173 60.770812) scale(0.12 -0.12)">
     <use xlink:href="#DejaVuSans-37"/>
     <use xlink:href="#DejaVuSans-2b" transform="translate(61.078125 0)"/>
     <use xlink:href="#DejaVuSans-24" transform="translate(136.28125 0)"/>
     <use xlink:href="#DejaVuSans-35" transform="translate(204.6875 0)"/>
    </g>
   </g>
  </g>
  <g id="text_28">
   <!-- Mixed-Training Cross-Dataset Macro F1 -->
   <g transform="translate(347.588906 16.318125) scale(0.12 -0.12)">
    <defs>
     <path id="DejaVuSans-4c" d="M 603 3500 
L 1178 3500 
L 1178 0 
L 603 0 
L 603 3500 
z
M 603 4863 
L 1178 4863 
L 1178 4134 
L 603 4134 
L 603 4863 
z
" transform="scale(0.015625)"/>
     <path id="DejaVuSans-5b" d="M 3513 3500 
L 2247 1797 
L 3578 0 
L 2900 0 
L 1881 1375 
L 863 0 
L 184 0 
L 1544 1831 
L 300 3500 
L 978 3500 
L 1906 2253 
L 2834 3500 
L 3513 3500 
z
" transform="scale(0.015625)"/>
     <path id="DejaVuSans-47" d="M 2906 2969 
L 2906 4863 
L 3481 4863 
L 3481 0 
L 2906 0 
L 2906 525 
Q 2725 213 2448 61 
Q 2172 -91 1784 -91 
Q 1150 -91 751 415 
Q 353 922 353 1747 
Q 353 2572 751 3078 
Q 1150 3584 1784 3584 
Q 2172 3584 2448 3432 
Q 2725 3281 2906 2969 
z
M 947 1747 
Q 947 1113 1208 752 
Q 1469 391 1925 391 
Q 2381 391 2643 752 
Q 2906 1113 2906 1747 
Q 2906 2381 2643 2742 
Q 2381 3103 1925 3103 
Q 1469 3103 1208 2742 
Q 947 2381 947 1747 
z
" transform="scale(0.015625)"/>
     <path id="DejaVuSans-10" d="M 313 2009 
L 1997 2009 
L 1997 1497 
L 313 1497 
L 313 2009 
z
" transform="scale(0.015625)"/>
     <path id="DejaVuSans-51" d="M 3513 2113 
L 3513 0 
L 2938 0 
L 2938 2094 
Q 2938 2591 2744 2837 
Q 2550 3084 2163 3084 
Q 1697 3084 1428 2787 
Q 1159 2491 1159 1978 
L 1159 0 
L 581 0 
L 581 3500 
L 1159 3500 
L 1159 2956 
Q 1366 3272 1645 3428 
Q 1925 3584 2291 3584 
Q 2894 3584 3203 3211 
Q 3513 2838 3513 2113 
z
" transform="scale(0.015625)"/>
     <path id="DejaVuSans-56" d="M 2834 3397 
L 2834 2853 
Q 2591 2978 2328 3040 
Q 2066 3103 1784 3103 
Q 1356 3103 1142 2972 
Q 928 2841 928 2578 
Q 928 2378 1081 2264 
Q 1234 2150 1697 2047 
L 1894 2003 
Q 2506 1872 2764 1633 
Q 3022 1394 3022 966 
Q 3022 478 2636 193 
Q 2250 -91 1575 -91 
Q 1294 -91 989 -36 
Q 684 19 347 128 
L 347 722 
Q 666 556 975 473 
Q 1284 391 1588 391 
Q 1994 391 2212 530 
Q 2431 669 2431 922 
Q 2431 1156 2273 1281 
Q 2116 1406 1581 1522 
L 1381 1569 
Q 847 1681 609 1914 
Q 372 2147 372 2553 
Q 372 3047 722 3315 
Q 1072 3584 1716 3584 
Q 2034 3584 2315 3537 
Q 2597 3491 2834 3397 
z
" transform="scale(0.015625)"/>
     <path id="DejaVuSans-27" d="M 1259 4147 
L 1259 519 
L 2022 519 
Q 2988 519 3436 956 
Q 3884 1394 3884 2338 
Q 3884 3275 3436 3711 
Q 2988 4147 2022 4147 
L 1259 4147 
z
M 628 4666 
L 1925 4666 
Q 3281 4666 3915 4102 
Q 4550 3538 4550 2338 
Q 4550 1131 3912 565 
Q 3275 0 1925 0 
L 628 0 
L 628 4666 
z
" transform="scale(0.015625)"/>
    </defs>
    <use xlink:href="#DejaVuSans-30"/>
    <use xlink:href="#DejaVuSans-4c" transform="translate(86.28125 0)"/>
    <use xlink:href="#DejaVuSans-5b" transform="translate(114.0625 0)"/>
    <use xlink:href="#DejaVuSans-48" transform="translate(170.171875 0)"/>
    <use xlink:href="#DejaVuSans-47" transform="translate(231.703125 0)"/>
    <use xlink:href="#DejaVuSans-10" transform="translate(295.1875 0)"/>
    <use xlink:href="#DejaVuSans-37" transform="translate(322.09375 0)"/>
    <use xlink:href="#DejaVuSans-55" transform="translate(368.46875 0)"/>
    <use xlink:href="#DejaVuSans-44" transform="translate(409.578125 0)"/>
    <use xlink:href="#DejaVuSans-4c" transform="translate(470.859375 0)"/>
    <use xlink:href="#DejaVuSans-51" transform="translate(498.640625 0)"/>
    <use xlink:href="#DejaVuSans-4c" transform="translate(562.015625 0)"/>
    <use xlink:href="#DejaVuSans-51" transform="translate(589.796875 0)"/>
    <use xlink:href="#DejaVuSans-4a" transform="translate(653.171875 0)"/>
    <use xlink:href="#DejaVuSans-3" transform="translate(716.65625 0)"/>
    <use xlink:href="#DejaVuSans-26" transform="translate(748.4375 0)"/>
    <use xlink:href="#DejaVuSans-55" transform="translate(818.265625 0)"/>
    <use xlink:href="#DejaVuSans-52" transform="translate(857.171875 0)"/>
    <use xlink:href="#DejaVuSans-56" transform="translate(918.359375 0)"/>
    <use xlink:href="#DejaVuSans-56" transform="translate(970.453125 0)"/>
    <use xlink:href="#DejaVuSans-10" transform="translate(1022.546875 0)"/>
    <use xlink:href="#DejaVuSans-27" transform="translate(1058.625 0)"/>
    <use xlink:href="#DejaVuSans-44" transform="translate(1135.625 0)"/>
    <use xlink:href="#DejaVuSans-57" transform="translate(1196.90625 0)"/>
    <use xlink:href="#DejaVuSans-44" transform="translate(1236.109375 0)"/>
    <use xlink:href="#DejaVuSans-56" transform="translate(1297.390625 0)"/>
    <use xlink:href="#DejaVuSans-48" transform="translate(1349.484375 0)"/>
    <use xlink:href="#DejaVuSans-57" transform="translate(1411.015625 0)"/>
    <use xlink:href="#DejaVuSans-3" transform="translate(1450.21875 0)"/>
    <use xlink:href="#DejaVuSans-30" transform="translate(1482 0)"/>
    <use xlink:href="#DejaVuSans-44" transform="translate(1568.28125 0)"/>
    <use xlink:href="#DejaVuSans-46" transform="translate(1629.5625 0)"/>
    <use xlink:href="#DejaVuSans-55" transform="translate(1684.546875 0)"/>
    <use xlink:href="#DejaVuSans-52" transform="translate(1723.453125 0)"/>
    <use xlink:href="#DejaVuSans-3" transform="translate(1784.640625 0)"/>
    <use xlink:href="#DejaVuSans-29" transform="translate(1816.421875 0)"/>
    <use xlink:href="#DejaVuSans-14" transform="translate(1873.9375 0)"/>
   </g>
  </g>
  <g id="legend_1">
   <g id="patch_41">
    <path d="M 393.279141 16.598437 
L 413.279141 16.598437 
L 413.279141 9.598437 
L 393.279141 9.598437 
z
" style="fill: #356da8"/>
   </g>
   <g id="text_29">
    <!-- mBERT -->
    <g transform="translate(421.279141 16.598437) scale(0.1 -0.1)">
     <defs>
      <path id="DejaVuSans-50" d="M 3328 2828 
Q 3544 3216 3844 3400 
Q 4144 3584 4550 3584 
Q 5097 3584 5394 3201 
Q 5691 2819 5691 2113 
L 5691 0 
L 5113 0 
L 5113 2094 
Q 5113 2597 4934 2840 
Q 4756 3084 4391 3084 
Q 3944 3084 3684 2787 
Q 3425 2491 3425 1978 
L 3425 0 
L 2847 0 
L 2847 2094 
Q 2847 2600 2669 2842 
Q 2491 3084 2119 3084 
Q 1678 3084 1418 2786 
Q 1159 2488 1159 1978 
L 1159 0 
L 581 0 
L 581 3500 
L 1159 3500 
L 1159 2956 
Q 1356 3278 1631 3431 
Q 1906 3584 2284 3584 
Q 2666 3584 2933 3390 
Q 3200 3197 3328 2828 
z
" transform="scale(0.015625)"/>
      <path id="DejaVuSans-25" d="M 1259 2228 
L 1259 519 
L 2272 519 
Q 2781 519 3026 730 
Q 3272 941 3272 1375 
Q 3272 1813 3026 2020 
Q 2781 2228 2272 2228 
L 1259 2228 
z
M 1259 4147 
L 1259 2741 
L 2194 2741 
Q 2656 2741 2882 2914 
Q 3109 3088 3109 3444 
Q 3109 3797 2882 3972 
Q 2656 4147 2194 4147 
L 1259 4147 
z
M 628 4666 
L 2241 4666 
Q 2963 4666 3353 4366 
Q 3744 4066 3744 3513 
Q 3744 3084 3544 2831 
Q 3344 2578 2956 2516 
Q 3422 2416 3680 2098 
Q 3938 1781 3938 1306 
Q 3938 681 3513 340 
Q 3088 0 2303 0 
L 628 0 
L 628 4666 
z
" transform="scale(0.015625)"/>
      <path id="DejaVuSans-28" d="M 628 4666 
L 3578 4666 
L 3578 4134 
L 1259 4134 
L 1259 2753 
L 3481 2753 
L 3481 2222 
L 1259 2222 
L 1259 531 
L 3634 531 
L 3634 0 
L 628 0 
L 628 4666 
z
" transform="scale(0.015625)"/>
     </defs>
     <use xlink:href="#DejaVuSans-50"/>
     <use xlink:href="#DejaVuSans-25" transform="translate(97.40625 0)"/>
     <use xlink:href="#DejaVuSans-28" transform="translate(166.015625 0)"/>
     <use xlink:href="#DejaVuSans-35" transform="translate(229.203125 0)"/>
     <use xlink:href="#DejaVuSans-37" transform="translate(291.40625 0)"/>
    </g>
   </g>
   <g id="patch_42">
    <path d="M 476.527578 16.598437 
L 496.527578 16.598437 
L 496.527578 9.598437 
L 476.527578 9.598437 
z
" style="fill: #b65f2a"/>
   </g>
   <g id="text_30">
    <!-- MuRIL -->
    <g transform="translate(504.527578 16.598437) scale(0.1 -0.1)">
     <defs>
      <path id="DejaVuSans-58" d="M 544 1381 
L 544 3500 
L 1119 3500 
L 1119 1403 
Q 1119 906 1312 657 
Q 1506 409 1894 409 
Q 2359 409 2629 706 
Q 2900 1003 2900 1516 
L 2900 3500 
L 3475 3500 
L 3475 0 
L 2900 0 
L 2900 538 
Q 2691 219 2414 64 
Q 2138 -91 1772 -91 
Q 1169 -91 856 284 
Q 544 659 544 1381 
z
M 1991 3584 
L 1991 3584 
z
" transform="scale(0.015625)"/>
      <path id="DejaVuSans-2c" d="M 628 4666 
L 1259 4666 
L 1259 0 
L 628 0 
L 628 4666 
z
" transform="scale(0.015625)"/>
      <path id="DejaVuSans-2f" d="M 628 4666 
L 1259 4666 
L 1259 531 
L 3531 531 
L 3531 0 
L 628 0 
L 628 4666 
z
" transform="scale(0.015625)"/>
     </defs>
     <use xlink:href="#DejaVuSans-30"/>
     <use xlink:href="#DejaVuSans-58" transform="translate(86.28125 0)"/>
     <use xlink:href="#DejaVuSans-35" transform="translate(149.65625 0)"/>
     <use xlink:href="#DejaVuSans-2c" transform="translate(219.140625 0)"/>
     <use xlink:href="#DejaVuSans-2f" transform="translate(248.640625 0)"/>
    </g>
   </g>
  </g>
 </g>
 <defs>
  <clipPath id="p528f1b574a">
   <rect x="40.925" y="66.770812" width="266.244342" height="238.585238"/>
  </clipPath>
  <clipPath id="pf6ae1d5fe6">
   <rect x="347.861657" y="66.770812" width="266.244342" height="238.585238"/>
  </clipPath>
  <clipPath id="p57f46b13e3">
   <rect x="654.798314" y="66.770812" width="266.244342" height="238.585238"/>
  </clipPath>
 </defs>
</svg>
