<?xml version="1.0" encoding="utf-8" standalone="no"?>
<!DOCTYPE svg PUBLIC "-//W3C//DTD SVG 1.1//EN"
  "http://www.w3.org/Graphics/SVG/1.1/DTD/svg11.dtd">
<svg xmlns:xlink="http://www.w3.org/1999/xlink" width="639.035258pt" height="338.401719pt" viewBox="0 0 639.035258 338.401719" xmlns="http://www.w3.org/2000/svg" version="1.1">
 <metadata>
  <rdf:RDF xmlns:dc="http://purl.org/dc/elements/1.1/" xmlns:cc="http://creativecommons.org/ns#" xmlns:rdf="http://www.w3.org/1999/02/22-rdf-syntax-ns#">
   <cc:Work>
    <dc:type rdf:resource="http://purl.org/dc/dcmitype/StillImage"/>
    <dc:date>2026-06-28T23:57:35.876304</dc:date>
    <dc:format>image/svg+xml</dc:format>
    <dc:creator>
     <cc:Agent>
      <dc:title>Matplotlib v3.11.0, https://matplotlib.org/</dc:title>
     </cc:Agent>
    </dc:creator>
   </cc:Work>
  </rdf:RDF>
 </metadata>
 <defs>
  <style type="text/css">*{stroke-linejoin: round; stroke-linecap: butt}</style>
 </defs>
 <g id="figure_1">
  <g id="patch_1">
   <path d="M 0 338.401719 
L 639.035258 338.401719 
L 639.035258 0 
L 0 0 
z
" style="fill: #ffffff"/>
  </g>
  <g id="axes_1">
   <g id="patch_2">
    <path d="M 198.8475 300.200937 
L 629.768251 300.200937 
L 629.768251 22.318125 
L 198.8475 22.318125 
z
" style="fill: #ffffff"/>
   </g>
   <g id="patch_3">
    <path d="M 336.146458 287.569901 
L 218.434807 287.569901 
L 218.434807 264.604379 
L 336.146458 264.604379 
z
" clip-path="url(#p7d4b6c045b)" style="fill: #b55252"/>
   </g>
   <g id="patch_4">
    <path d="M 336.146458 258.862998 
L 225.487106 258.862998 
L 225.487106 235.897477 
L 336.146458 235.897477 
z
" clip-path="url(#p7d4b6c045b)" style="fill: #b55252"/>
   </g>
   <g id="patch_5">
    <path d="M 336.146458 230.156096 
L 352.355271 230.156096 
L 352.355271 207.190575 
L 336.146458 207.190575 
z
" clip-path="url(#p7d4b6c045b)" style="fill: #3f8f6b"/>
   </g>
   <g id="patch_6">
    <path d="M 336.146458 201.449194 
L 429.865497 201.449194 
L 429.865497 178.483673 
L 336.146458 178.483673 
z
" clip-path="url(#p7d4b6c045b)" style="fill: #3f8f6b"/>
   </g>
   <g id="patch_7">
    <path d="M 336.146458 172.742292 
L 431.716237 172.742292 
L 431.716237 149.77677 
L 336.146458 149.77677 
z
" clip-path="url(#p7d4b6c045b)" style="fill: #3f8f6b"/>
   </g>
   <g id="patch_8">
    <path d="M 336.146458 144.03539 
L 444.807764 144.03539 
L 444.807764 121.069868 
L 336.146458 121.069868 
z
" clip-path="url(#p7d4b6c045b)" style="fill: #3f8f6b"/>
   </g>
   <g id="patch_9">
    <path d="M 336.146458 115.328488 
L 470.005173 115.328488 
L 470.005173 92.362966 
L 336.146458 92.362966 
z
" clip-path="url(#p7d4b6c045b)" style="fill: #3f8f6b"/>
   </g>
   <g id="patch_10">
    <path d="M 336.146458 86.621586 
L 502.729042 86.621586 
L 502.729042 63.656064 
L 336.146458 63.656064 
z
" clip-path="url(#p7d4b6c045b)" style="fill: #3f8f6b"/>
   </g>
   <g id="patch_11">
    <path d="M 336.146458 57.914684 
L 610.180944 57.914684 
L 610.180944 34.949162 
L 336.146458 34.949162 
z
" clip-path="url(#p7d4b6c045b)" style="fill: #3f8f6b"/>
   </g>
   <g id="matplotlib.axis_1">
    <g id="xtick_1">
     <g id="line2d_1">
      <defs>
       <path id="m85e7c7c306" d="M 0 0 
L 0 3.5 
" style="stroke: #000000; stroke-width: 0.8"/>
      </defs>
      <g>
       <use xlink:href="#m85e7c7c306" x="222.324063" y="300.200937" style="stroke: #000000; stroke-width: 0.8"/>
      </g>
     </g>
     <g id="text_1">
      <!-- −5.0 -->
      <g transform="translate(210.182657 314.798594) scale(0.1 -0.1)">
       <defs>
        <path id="DejaVuSans-c9c" d="M 678 2272 
L 4684 2272 
L 4684 1741 
L 678 1741 
L 678 2272 
z
" transform="scale(0.015625)"/>
        <path id="DejaVuSans-18" d="M 691 4666 
L 3169 4666 
L 3169 4134 
L 1269 4134 
L 1269 2991 
Q 1406 3038 1543 3061 
Q 1681 3084 1819 3084 
Q 2600 3084 3056 2656 
Q 3513 2228 3513 1497 
Q 3513 744 3044 326 
Q 2575 -91 1722 -91 
Q 1428 -91 1123 -41 
Q 819 9 494 109 
L 494 744 
Q 775 591 1075 516 
Q 1375 441 1709 441 
Q 2250 441 2565 725 
Q 2881 1009 2881 1497 
Q 2881 1984 2565 2268 
Q 2250 2553 1709 2553 
Q 1456 2553 1204 2497 
Q 953 2441 691 2322 
L 691 4666 
z
" transform="scale(0.015625)"/>
        <path id="DejaVuSans-11" d="M 684 794 
L 1344 794 
L 1344 0 
L 684 0 
L 684 794 
z
" transform="scale(0.015625)"/>
        <path id="DejaVuSans-13" d="M 2034 4250 
Q 1547 4250 1301 3770 
Q 1056 3291 1056 2328 
Q 1056 1369 1301 889 
Q 1547 409 2034 409 
Q 2525 409 2770 889 
Q 3016 1369 3016 2328 
Q 3016 3291 2770 3770 
Q 2525 4250 2034 4250 
z
M 2034 4750 
Q 2819 4750 3233 4129 
Q 3647 3509 3647 2328 
Q 3647 1150 3233 529 
Q 2819 -91 2034 -91 
Q 1250 -91 836 529 
Q 422 1150 422 2328 
Q 422 3509 836 4129 
Q 1250 4750 2034 4750 
z
" transform="scale(0.015625)"/>
       </defs>
       <use xlink:href="#DejaVuSans-c9c"/>
       <use xlink:href="#DejaVuSans-18" transform="translate(83.796875 0)"/>
       <use xlink:href="#DejaVuSans-11" transform="translate(147.421875 0)"/>
       <use xlink:href="#DejaVuSans-13" transform="translate(179.203125 0)"/>
      </g>
     </g>
    </g>
    <g id="xtick_2">
     <g id="line2d_2">
      <g>
       <use xlink:href="#m85e7c7c306" x="279.235261" y="300.200937" style="stroke: #000000; stroke-width: 0.8"/>
      </g>
     </g>
     <g id="text_2">
      <!-- −2.5 -->
      <g transform="translate(267.093855 314.798594) scale(0.1 -0.1)">
       <defs>
        <path id="DejaVuSans-15" d="M 1228 531 
L 3431 531 
L 3431 0 
L 469 0 
L 469 531 
Q 828 903 1448 1529 
Q 2069 2156 2228 2338 
Q 2531 2678 2651 2914 
Q 2772 3150 2772 3378 
Q 2772 3750 2511 3984 
Q 2250 4219 1831 4219 
Q 1534 4219 1204 4116 
Q 875 4013 500 3803 
L 500 4441 
Q 881 4594 1212 4672 
Q 1544 4750 1819 4750 
Q 2544 4750 2975 4387 
Q 3406 4025 3406 3419 
Q 3406 3131 3298 2873 
Q 3191 2616 2906 2266 
Q 2828 2175 2409 1742 
Q 1991 1309 1228 531 
z
" transform="scale(0.015625)"/>
       </defs>
       <use xlink:href="#DejaVuSans-c9c"/>
       <use xlink:href="#DejaVuSans-15" transform="translate(83.796875 0)"/>
       <use xlink:href="#DejaVuSans-11" transform="translate(147.421875 0)"/>
       <use xlink:href="#DejaVuSans-18" transform="translate(179.203125 0)"/>
      </g>
     </g>
    </g>
    <g id="xtick_3">
     <g id="line2d_3">
      <g>
       <use xlink:href="#m85e7c7c306" x="336.146458" y="300.200937" style="stroke: #000000; stroke-width: 0.8"/>
      </g>
     </g>
     <g id="text_3">
      <!-- 0.0 -->
      <g transform="translate(328.194896 314.798594) scale(0.1 -0.1)">
       <use xlink:href="#DejaVuSans-13"/>
       <use xlink:href="#DejaVuSans-11" transform="translate(63.625 0)"/>
       <use xlink:href="#DejaVuSans-13" transform="translate(95.40625 0)"/>
      </g>
     </g>
    </g>
    <g id="xtick_4">
     <g id="line2d_4">
      <g>
       <use xlink:href="#m85e7c7c306" x="393.057656" y="300.200937" style="stroke: #000000; stroke-width: 0.8"/>
      </g>
     </g>
     <g id="text_4">
      <!-- 2.5 -->
      <g transform="translate(385.106093 314.798594) scale(0.1 -0.1)">
       <use xlink:href="#DejaVuSans-15"/>
       <use xlink:href="#DejaVuSans-11" transform="translate(63.625 0)"/>
       <use xlink:href="#DejaVuSans-18" transform="translate(95.40625 0)"/>
      </g>
     </g>
    </g>
    <g id="xtick_5">
     <g id="line2d_5">
      <g>
       <use xlink:href="#m85e7c7c306" x="449.968853" y="300.200937" style="stroke: #000000; stroke-width: 0.8"/>
      </g>
     </g>
     <g id="text_5">
      <!-- 5.0 -->
      <g transform="translate(442.017291 314.798594) scale(0.1 -0.1)">
       <use xlink:href="#DejaVuSans-18"/>
       <use xlink:href="#DejaVuSans-11" transform="translate(63.625 0)"/>
       <use xlink:href="#DejaVuSans-13" transform="translate(95.40625 0)"/>
      </g>
     </g>
    </g>
    <g id="xtick_6">
     <g id="line2d_6">
      <g>
       <use xlink:href="#m85e7c7c306" x="506.880051" y="300.200937" style="stroke: #000000; stroke-width: 0.8"/>
      </g>
     </g>
     <g id="text_6">
      <!-- 7.5 -->
      <g transform="translate(498.928488 314.798594) scale(0.1 -0.1)">
       <defs>
        <path id="DejaVuSans-1a" d="M 525 4666 
L 3525 4666 
L 3525 4397 
L 1831 0 
L 1172 0 
L 2766 4134 
L 525 4134 
L 525 4666 
z
" transform="scale(0.015625)"/>
       </defs>
       <use xlink:href="#DejaVuSans-1a"/>
       <use xlink:href="#DejaVuSans-11" transform="translate(63.625 0)"/>
       <use xlink:href="#DejaVuSans-18" transform="translate(95.40625 0)"/>
      </g>
     </g>
    </g>
    <g id="xtick_7">
     <g id="line2d_7">
      <g>
       <use xlink:href="#m85e7c7c306" x="563.791248" y="300.200937" style="stroke: #000000; stroke-width: 0.8"/>
      </g>
     </g>
     <g id="text_7">
      <!-- 10.0 -->
      <g transform="translate(552.658436 314.798594) scale(0.1 -0.1)">
       <defs>
        <path id="DejaVuSans-14" d="M 794 531 
L 1825 531 
L 1825 4091 
L 703 3866 
L 703 4441 
L 1819 4666 
L 2450 4666 
L 2450 531 
L 3481 531 
L 3481 0 
L 794 0 
L 794 531 
z
" transform="scale(0.015625)"/>
       </defs>
       <use xlink:href="#DejaVuSans-14"/>
       <use xlink:href="#DejaVuSans-13" transform="translate(63.625 0)"/>
       <use xlink:href="#DejaVuSans-11" transform="translate(127.25 0)"/>
       <use xlink:href="#DejaVuSans-13" transform="translate(159.03125 0)"/>
      </g>
     </g>
    </g>
    <g id="xtick_8">
     <g id="line2d_8">
      <g>
       <use xlink:href="#m85e7c7c306" x="620.702446" y="300.200937" style="stroke: #000000; stroke-width: 0.8"/>
      </g>
     </g>
     <g id="text_8">
      <!-- 12.5 -->
      <g transform="translate(609.569633 314.798594) scale(0.1 -0.1)">
       <use xlink:href="#DejaVuSans-14"/>
       <use xlink:href="#DejaVuSans-15" transform="translate(63.625 0)"/>
       <use xlink:href="#DejaVuSans-11" transform="translate(127.25 0)"/>
       <use xlink:href="#DejaVuSans-18" transform="translate(159.03125 0)"/>
      </g>
     </g>
    </g>
    <g id="text_9">
     <!-- Best transformer macro F1 minus best TF-IDF macro F1 -->
     <g transform="translate(275.438344 328.799375) scale(0.1 -0.1)">
      <defs>
       <path id="DejaVuSans-25" d="M 1259 2228 
L 1259 519 
L 2272 519 
Q 2781 519 3026 730 
Q 3272 941 3272 1375 
Q 3272 1813 3026 2020 
Q 2781 2228 2272 2228 
L 1259 2228 
z
M 1259 4147 
L 1259 2741 
L 2194 2741 
Q 2656 2741 2882 2914 
Q 3109 3088 3109 3444 
Q 3109 3797 2882 3972 
Q 2656 4147 2194 4147 
L 1259 4147 
z
M 628 4666 
L 2241 4666 
Q 2963 4666 3353 4366 
Q 3744 4066 3744 3513 
Q 3744 3084 3544 2831 
Q 3344 2578 2956 2516 
Q 3422 2416 3680 2098 
Q 3938 1781 3938 1306 
Q 3938 681 3513 340 
Q 3088 0 2303 0 
L 628 0 
L 628 4666 
z
" transform="scale(0.015625)"/>
       <path id="DejaVuSans-48" d="M 3597 1894 
L 3597 1613 
L 953 1613 
Q 991 1019 1311 708 
Q 1631 397 2203 397 
Q 2534 397 2845 478 
Q 3156 559 3463 722 
L 3463 178 
Q 3153 47 2828 -22 
Q 2503 -91 2169 -91 
Q 1331 -91 842 396 
Q 353 884 353 1716 
Q 353 2575 817 3079 
Q 1281 3584 2069 3584 
Q 2775 3584 3186 3129 
Q 3597 2675 3597 1894 
z
M 3022 2063 
Q 3016 2534 2758 2815 
Q 2500 3097 2075 3097 
Q 1594 3097 1305 2825 
Q 1016 2553 972 2059 
L 3022 2063 
z
" transform="scale(0.015625)"/>
       <path id="DejaVuSans-56" d="M 2834 3397 
L 2834 2853 
Q 2591 2978 2328 3040 
Q 2066 3103 1784 3103 
Q 1356 3103 1142 2972 
Q 928 2841 928 2578 
Q 928 2378 1081 2264 
Q 1234 2150 1697 2047 
L 1894 2003 
Q 2506 1872 2764 1633 
Q 3022 1394 3022 966 
Q 3022 478 2636 193 
Q 2250 -91 1575 -91 
Q 1294 -91 989 -36 
Q 684 19 347 128 
L 347 722 
Q 666 556 975 473 
Q 1284 391 1588 391 
Q 1994 391 2212 530 
Q 2431 669 2431 922 
Q 2431 1156 2273 1281 
Q 2116 1406 1581 1522 
L 1381 1569 
Q 847 1681 609 1914 
Q 372 2147 372 2553 
Q 372 3047 722 3315 
Q 1072 3584 1716 3584 
Q 2034 3584 2315 3537 
Q 2597 3491 2834 3397 
z
" transform="scale(0.015625)"/>
       <path id="DejaVuSans-57" d="M 1172 4494 
L 1172 3500 
L 2356 3500 
L 2356 3053 
L 1172 3053 
L 1172 1153 
Q 1172 725 1289 603 
Q 1406 481 1766 481 
L 2356 481 
L 2356 0 
L 1766 0 
Q 1100 0 847 248 
Q 594 497 594 1153 
L 594 3053 
L 172 3053 
L 172 3500 
L 594 3500 
L 594 4494 
L 1172 4494 
z
" transform="scale(0.015625)"/>
       <path id="DejaVuSans-3" transform="scale(0.015625)"/>
       <path id="DejaVuSans-55" d="M 2631 2963 
Q 2534 3019 2420 3045 
Q 2306 3072 2169 3072 
Q 1681 3072 1420 2755 
Q 1159 2438 1159 1844 
L 1159 0 
L 581 0 
L 581 3500 
L 1159 3500 
L 1159 2956 
Q 1341 3275 1631 3429 
Q 1922 3584 2338 3584 
Q 2397 3584 2469 3576 
Q 2541 3569 2628 3553 
L 2631 2963 
z
" transform="scale(0.015625)"/>
       <path id="DejaVuSans-44" d="M 2194 1759 
Q 1497 1759 1228 1600 
Q 959 1441 959 1056 
Q 959 750 1161 570 
Q 1363 391 1709 391 
Q 2188 391 2477 730 
Q 2766 1069 2766 1631 
L 2766 1759 
L 2194 1759 
z
M 3341 1997 
L 3341 0 
L 2766 0 
L 2766 531 
Q 2569 213 2275 61 
Q 1981 -91 1556 -91 
Q 1019 -91 701 211 
Q 384 513 384 1019 
Q 384 1609 779 1909 
Q 1175 2209 1959 2209 
L 2766 2209 
L 2766 2266 
Q 2766 2663 2505 2880 
Q 2244 3097 1772 3097 
Q 1472 3097 1187 3025 
Q 903 2953 641 2809 
L 641 3341 
Q 956 3463 1253 3523 
Q 1550 3584 1831 3584 
Q 2591 3584 2966 3190 
Q 3341 2797 3341 1997 
z
" transform="scale(0.015625)"/>
       <path id="DejaVuSans-51" d="M 3513 2113 
L 3513 0 
L 2938 0 
L 2938 2094 
Q 2938 2591 2744 2837 
Q 2550 3084 2163 3084 
Q 1697 3084 1428 2787 
Q 1159 2491 1159 1978 
L 1159 0 
L 581 0 
L 581 3500 
L 1159 3500 
L 1159 2956 
Q 1366 3272 1645 3428 
Q 1925 3584 2291 3584 
Q 2894 3584 3203 3211 
Q 3513 2838 3513 2113 
z
" transform="scale(0.015625)"/>
       <path id="DejaVuSans-49" d="M 2375 4863 
L 2375 4384 
L 1825 4384 
Q 1516 4384 1395 4259 
Q 1275 4134 1275 3809 
L 1275 3500 
L 2222 3500 
L 2222 3053 
L 1275 3053 
L 1275 0 
L 697 0 
L 697 3053 
L 147 3053 
L 147 3500 
L 697 3500 
L 697 3744 
Q 697 4328 969 4595 
Q 1241 4863 1831 4863 
L 2375 4863 
z
" transform="scale(0.015625)"/>
       <path id="DejaVuSans-52" d="M 1959 3097 
Q 1497 3097 1228 2736 
Q 959 2375 959 1747 
Q 959 1119 1226 758 
Q 1494 397 1959 397 
Q 2419 397 2687 759 
Q 2956 1122 2956 1747 
Q 2956 2369 2687 2733 
Q 2419 3097 1959 3097 
z
M 1959 3584 
Q 2709 3584 3137 3096 
Q 3566 2609 3566 1747 
Q 3566 888 3137 398 
Q 2709 -91 1959 -91 
Q 1206 -91 779 398 
Q 353 888 353 1747 
Q 353 2609 779 3096 
Q 1206 3584 1959 3584 
z
" transform="scale(0.015625)"/>
       <path id="DejaVuSans-50" d="M 3328 2828 
Q 3544 3216 3844 3400 
Q 4144 3584 4550 3584 
Q 5097 3584 5394 3201 
Q 5691 2819 5691 2113 
L 5691 0 
L 5113 0 
L 5113 2094 
Q 5113 2597 4934 2840 
Q 4756 3084 4391 3084 
Q 3944 3084 3684 2787 
Q 3425 2491 3425 1978 
L 3425 0 
L 2847 0 
L 2847 2094 
Q 2847 2600 2669 2842 
Q 2491 3084 2119 3084 
Q 1678 3084 1418 2786 
Q 1159 2488 1159 1978 
L 1159 0 
L 581 0 
L 581 3500 
L 1159 3500 
L 1159 2956 
Q 1356 3278 1631 3431 
Q 1906 3584 2284 3584 
Q 2666 3584 2933 3390 
Q 3200 3197 3328 2828 
z
" transform="scale(0.015625)"/>
       <path id="DejaVuSans-46" d="M 3122 3366 
L 3122 2828 
Q 2878 2963 2633 3030 
Q 2388 3097 2138 3097 
Q 1578 3097 1268 2742 
Q 959 2388 959 1747 
Q 959 1106 1268 751 
Q 1578 397 2138 397 
Q 2388 397 2633 464 
Q 2878 531 3122 666 
L 3122 134 
Q 2881 22 2623 -34 
Q 2366 -91 2075 -91 
Q 1284 -91 818 406 
Q 353 903 353 1747 
Q 353 2603 823 3093 
Q 1294 3584 2113 3584 
Q 2378 3584 2631 3529 
Q 2884 3475 3122 3366 
z
" transform="scale(0.015625)"/>
       <path id="DejaVuSans-29" d="M 628 4666 
L 3309 4666 
L 3309 4134 
L 1259 4134 
L 1259 2759 
L 3109 2759 
L 3109 2228 
L 1259 2228 
L 1259 0 
L 628 0 
L 628 4666 
z
" transform="scale(0.015625)"/>
       <path id="DejaVuSans-4c" d="M 603 3500 
L 1178 3500 
L 1178 0 
L 603 0 
L 603 3500 
z
M 603 4863 
L 1178 4863 
L 1178 4134 
L 603 4134 
L 603 4863 
z
" transform="scale(0.015625)"/>
       <path id="DejaVuSans-58" d="M 544 1381 
L 544 3500 
L 1119 3500 
L 1119 1403 
Q 1119 906 1312 657 
Q 1506 409 1894 409 
Q 2359 409 2629 706 
Q 2900 1003 2900 1516 
L 2900 3500 
L 3475 3500 
L 3475 0 
L 2900 0 
L 2900 538 
Q 2691 219 2414 64 
Q 2138 -91 1772 -91 
Q 1169 -91 856 284 
Q 544 659 544 1381 
z
M 1991 3584 
L 1991 3584 
z
" transform="scale(0.015625)"/>
       <path id="DejaVuSans-45" d="M 3116 1747 
Q 3116 2381 2855 2742 
Q 2594 3103 2138 3103 
Q 1681 3103 1420 2742 
Q 1159 2381 1159 1747 
Q 1159 1113 1420 752 
Q 1681 391 2138 391 
Q 2594 391 2855 752 
Q 3116 1113 3116 1747 
z
M 1159 2969 
Q 1341 3281 1617 3432 
Q 1894 3584 2278 3584 
Q 2916 3584 3314 3078 
Q 3713 2572 3713 1747 
Q 3713 922 3314 415 
Q 2916 -91 2278 -91 
Q 1894 -91 1617 61 
Q 1341 213 1159 525 
L 1159 0 
L 581 0 
L 581 4863 
L 1159 4863 
L 1159 2969 
z
" transform="scale(0.015625)"/>
       <path id="DejaVuSans-37" d="M -19 4666 
L 3928 4666 
L 3928 4134 
L 2272 4134 
L 2272 0 
L 1638 0 
L 1638 4134 
L -19 4134 
L -19 4666 
z
" transform="scale(0.015625)"/>
       <path id="DejaVuSans-10" d="M 313 2009 
L 1997 2009 
L 1997 1497 
L 313 1497 
L 313 2009 
z
" transform="scale(0.015625)"/>
       <path id="DejaVuSans-2c" d="M 628 4666 
L 1259 4666 
L 1259 0 
L 628 0 
L 628 4666 
z
" transform="scale(0.015625)"/>
       <path id="DejaVuSans-27" d="M 1259 4147 
L 1259 519 
L 2022 519 
Q 2988 519 3436 956 
Q 3884 1394 3884 2338 
Q 3884 3275 3436 3711 
Q 2988 4147 2022 4147 
L 1259 4147 
z
M 628 4666 
L 1925 4666 
Q 3281 4666 3915 4102 
Q 4550 3538 4550 2338 
Q 4550 1131 3912 565 
Q 3275 0 1925 0 
L 628 0 
L 628 4666 
z
" transform="scale(0.015625)"/>
      </defs>
      <use xlink:href="#DejaVuSans-25"/>
      <use xlink:href="#DejaVuSans-48" transform="translate(68.609375 0)"/>
      <use xlink:href="#DejaVuSans-56" transform="translate(130.140625 0)"/>
      <use xlink:href="#DejaVuSans-57" transform="translate(182.234375 0)"/>
      <use xlink:href="#DejaVuSans-3" transform="translate(221.4375 0)"/>
      <use xlink:href="#DejaVuSans-57" transform="translate(253.21875 0)"/>
      <use xlink:href="#DejaVuSans-55" transform="translate(292.421875 0)"/>
      <use xlink:href="#DejaVuSans-44" transform="translate(333.53125 0)"/>
      <use xlink:href="#DejaVuSans-51" transform="translate(394.8125 0)"/>
      <use xlink:href="#DejaVuSans-56" transform="translate(458.1875 0)"/>
      <use xlink:href="#DejaVuSans-49" transform="translate(510.28125 0)"/>
      <use xlink:href="#DejaVuSans-52" transform="translate(545.484375 0)"/>
      <use xlink:href="#DejaVuSans-55" transform="translate(606.671875 0)"/>
      <use xlink:href="#DejaVuSans-50" transform="translate(646.03125 0)"/>
      <use xlink:href="#DejaVuSans-48" transform="translate(743.4375 0)"/>
      <use xlink:href="#DejaVuSans-55" transform="translate(804.96875 0)"/>
      <use xlink:href="#DejaVuSans-3" transform="translate(846.078125 0)"/>
      <use xlink:href="#DejaVuSans-50" transform="translate(877.859375 0)"/>
      <use xlink:href="#DejaVuSans-44" transform="translate(975.265625 0)"/>
      <use xlink:href="#DejaVuSans-46" transform="translate(1036.546875 0)"/>
      <use xlink:href="#DejaVuSans-55" transform="translate(1091.53125 0)"/>
      <use xlink:href="#DejaVuSans-52" transform="translate(1130.4375 0)"/>
      <use xlink:href="#DejaVuSans-3" transform="translate(1191.625 0)"/>
      <use xlink:href="#DejaVuSans-29" transform="translate(1223.40625 0)"/>
      <use xlink:href="#DejaVuSans-14" transform="translate(1280.921875 0)"/>
      <use xlink:href="#DejaVuSans-3" transform="translate(1344.546875 0)"/>
      <use xlink:href="#DejaVuSans-50" transform="translate(1376.328125 0)"/>
      <use xlink:href="#DejaVuSans-4c" transform="translate(1473.734375 0)"/>
      <use xlink:href="#DejaVuSans-51" transform="translate(1501.515625 0)"/>
      <use xlink:href="#DejaVuSans-58" transform="translate(1564.890625 0)"/>
      <use xlink:href="#DejaVuSans-56" transform="translate(1628.265625 0)"/>
      <use xlink:href="#DejaVuSans-3" transform="translate(1680.359375 0)"/>
      <use xlink:href="#DejaVuSans-45" transform="translate(1712.140625 0)"/>
      <use xlink:href="#DejaVuSans-48" transform="translate(1775.625 0)"/>
      <use xlink:href="#DejaVuSans-56" transform="translate(1837.15625 0)"/>
      <use xlink:href="#DejaVuSans-57" transform="translate(1889.25 0)"/>
      <use xlink:href="#DejaVuSans-3" transform="translate(1928.453125 0)"/>
      <use xlink:href="#DejaVuSans-37" transform="translate(1960.234375 0)"/>
      <use xlink:href="#DejaVuSans-29" transform="translate(2021.3125 0)"/>
      <use xlink:href="#DejaVuSans-10" transform="translate(2078.828125 0)"/>
      <use xlink:href="#DejaVuSans-2c" transform="translate(2114.90625 0)"/>
      <use xlink:href="#DejaVuSans-27" transform="translate(2144.40625 0)"/>
      <use xlink:href="#DejaVuSans-29" transform="translate(2221.40625 0)"/>
      <use xlink:href="#DejaVuSans-3" transform="translate(2278.921875 0)"/>
      <use xlink:href="#DejaVuSans-50" transform="translate(2310.703125 0)"/>
      <use xlink:href="#DejaVuSans-44" transform="translate(2408.109375 0)"/>
      <use xlink:href="#DejaVuSans-46" transform="translate(2469.390625 0)"/>
      <use xlink:href="#DejaVuSans-55" transform="translate(2524.375 0)"/>
      <use xlink:href="#DejaVuSans-52" transform="translate(2563.28125 0)"/>
      <use xlink:href="#DejaVuSans-3" transform="translate(2624.46875 0)"/>
      <use xlink:href="#DejaVuSans-29" transform="translate(2656.25 0)"/>
      <use xlink:href="#DejaVuSans-14" transform="translate(2713.765625 0)"/>
     </g>
    </g>
   </g>
   <g id="matplotlib.axis_2">
    <g id="ytick_1">
     <g id="line2d_9">
      <defs>
       <path id="m1a41981610" d="M 0 0 
L -3.5 0 
" style="stroke: #000000; stroke-width: 0.8"/>
      </defs>
      <g>
       <use xlink:href="#m1a41981610" x="198.8475" y="276.08714" style="stroke: #000000; stroke-width: 0.8"/>
      </g>
     </g>
     <g id="text_10">
      <!-- kaggle_hinglish_hate -&gt; thar_religion -->
      <g transform="translate(43.17625 279.126515) scale(0.08 -0.08)">
       <defs>
        <path id="DejaVuSans-4e" d="M 581 4863 
L 1159 4863 
L 1159 1991 
L 2875 3500 
L 3609 3500 
L 1753 1863 
L 3688 0 
L 2938 0 
L 1159 1709 
L 1159 0 
L 581 0 
L 581 4863 
z
" transform="scale(0.015625)"/>
        <path id="DejaVuSans-4a" d="M 2906 1791 
Q 2906 2416 2648 2759 
Q 2391 3103 1925 3103 
Q 1463 3103 1205 2759 
Q 947 2416 947 1791 
Q 947 1169 1205 825 
Q 1463 481 1925 481 
Q 2391 481 2648 825 
Q 2906 1169 2906 1791 
z
M 3481 434 
Q 3481 -459 3084 -895 
Q 2688 -1331 1869 -1331 
Q 1566 -1331 1297 -1286 
Q 1028 -1241 775 -1147 
L 775 -588 
Q 1028 -725 1275 -790 
Q 1522 -856 1778 -856 
Q 2344 -856 2625 -561 
Q 2906 -266 2906 331 
L 2906 616 
Q 2728 306 2450 153 
Q 2172 0 1784 0 
Q 1141 0 747 490 
Q 353 981 353 1791 
Q 353 2603 747 3093 
Q 1141 3584 1784 3584 
Q 2172 3584 2450 3431 
Q 2728 3278 2906 2969 
L 2906 3500 
L 3481 3500 
L 3481 434 
z
" transform="scale(0.015625)"/>
        <path id="DejaVuSans-4f" d="M 603 4863 
L 1178 4863 
L 1178 0 
L 603 0 
L 603 4863 
z
" transform="scale(0.015625)"/>
        <path id="DejaVuSans-42" d="M 3263 -1063 
L 3263 -1509 
L -63 -1509 
L -63 -1063 
L 3263 -1063 
z
" transform="scale(0.015625)"/>
        <path id="DejaVuSans-4b" d="M 3513 2113 
L 3513 0 
L 2938 0 
L 2938 2094 
Q 2938 2591 2744 2837 
Q 2550 3084 2163 3084 
Q 1697 3084 1428 2787 
Q 1159 2491 1159 1978 
L 1159 0 
L 581 0 
L 581 4863 
L 1159 4863 
L 1159 2956 
Q 1366 3272 1645 3428 
Q 1925 3584 2291 3584 
Q 2894 3584 3203 3211 
Q 3513 2838 3513 2113 
z
" transform="scale(0.015625)"/>
        <path id="DejaVuSans-21" d="M 678 3150 
L 678 3719 
L 4684 2266 
L 4684 1747 
L 678 294 
L 678 863 
L 3897 2003 
L 678 3150 
z
" transform="scale(0.015625)"/>
       </defs>
       <use xlink:href="#DejaVuSans-4e"/>
       <use xlink:href="#DejaVuSans-44" transform="translate(56.15625 0)"/>
       <use xlink:href="#DejaVuSans-4a" transform="translate(117.4375 0)"/>
       <use xlink:href="#DejaVuSans-4a" transform="translate(180.921875 0)"/>
       <use xlink:href="#DejaVuSans-4f" transform="translate(244.40625 0)"/>
       <use xlink:href="#DejaVuSans-48" transform="translate(272.1875 0)"/>
       <use xlink:href="#DejaVuSans-42" transform="translate(333.71875 0)"/>
       <use xlink:href="#DejaVuSans-4b" transform="translate(383.71875 0)"/>
       <use xlink:href="#DejaVuSans-4c" transform="translate(447.09375 0)"/>
       <use xlink:href="#DejaVuSans-51" transform="translate(474.875 0)"/>
       <use xlink:href="#DejaVuSans-4a" transform="translate(538.25 0)"/>
       <use xlink:href="#DejaVuSans-4f" transform="translate(601.734375 0)"/>
       <use xlink:href="#DejaVuSans-4c" transform="translate(629.515625 0)"/>
       <use xlink:href="#DejaVuSans-56" transform="translate(657.296875 0)"/>
       <use xlink:href="#DejaVuSans-4b" transform="translate(709.390625 0)"/>
       <use xlink:href="#DejaVuSans-42" transform="translate(772.765625 0)"/>
       <use xlink:href="#DejaVuSans-4b" transform="translate(822.765625 0)"/>
       <use xlink:href="#DejaVuSans-44" transform="translate(886.140625 0)"/>
       <use xlink:href="#DejaVuSans-57" transform="translate(947.421875 0)"/>
       <use xlink:href="#DejaVuSans-48" transform="translate(986.625 0)"/>
       <use xlink:href="#DejaVuSans-3" transform="translate(1048.15625 0)"/>
       <use xlink:href="#DejaVuSans-10" transform="translate(1079.9375 0)"/>
       <use xlink:href="#DejaVuSans-21" transform="translate(1116.015625 0)"/>
       <use xlink:href="#DejaVuSans-3" transform="translate(1199.8125 0)"/>
       <use xlink:href="#DejaVuSans-57" transform="translate(1231.59375 0)"/>
       <use xlink:href="#DejaVuSans-4b" transform="translate(1270.796875 0)"/>
       <use xlink:href="#DejaVuSans-44" transform="translate(1334.171875 0)"/>
       <use xlink:href="#DejaVuSans-55" transform="translate(1395.453125 0)"/>
       <use xlink:href="#DejaVuSans-42" transform="translate(1436.5625 0)"/>
       <use xlink:href="#DejaVuSans-55" transform="translate(1486.5625 0)"/>
       <use xlink:href="#DejaVuSans-48" transform="translate(1525.46875 0)"/>
       <use xlink:href="#DejaVuSans-4f" transform="translate(1587 0)"/>
       <use xlink:href="#DejaVuSans-4c" transform="translate(1614.78125 0)"/>
       <use xlink:href="#DejaVuSans-4a" transform="translate(1642.5625 0)"/>
       <use xlink:href="#DejaVuSans-4c" transform="translate(1706.046875 0)"/>
       <use xlink:href="#DejaVuSans-52" transform="translate(1733.828125 0)"/>
       <use xlink:href="#DejaVuSans-51" transform="translate(1795.015625 0)"/>
      </g>
     </g>
    </g>
    <g id="ytick_2">
     <g id="line2d_10">
      <g>
       <use xlink:href="#m1a41981610" x="198.8475" y="247.380238" style="stroke: #000000; stroke-width: 0.8"/>
      </g>
     </g>
     <g id="text_11">
      <!-- thar_religion -&gt; kaggle_hinglish_hate -->
      <g transform="translate(43.17625 250.419613) scale(0.08 -0.08)">
       <use xlink:href="#DejaVuSans-57"/>
       <use xlink:href="#DejaVuSans-4b" transform="translate(39.203125 0)"/>
       <use xlink:href="#DejaVuSans-44" transform="translate(102.578125 0)"/>
       <use xlink:href="#DejaVuSans-55" transform="translate(163.859375 0)"/>
       <use xlink:href="#DejaVuSans-42" transform="translate(204.96875 0)"/>
       <use xlink:href="#DejaVuSans-55" transform="translate(254.96875 0)"/>
       <use xlink:href="#DejaVuSans-48" transform="translate(293.875 0)"/>
       <use xlink:href="#DejaVuSans-4f" transform="translate(355.40625 0)"/>
       <use xlink:href="#DejaVuSans-4c" transform="translate(383.1875 0)"/>
       <use xlink:href="#DejaVuSans-4a" transform="translate(410.96875 0)"/>
       <use xlink:href="#DejaVuSans-4c" transform="translate(474.453125 0)"/>
       <use xlink:href="#DejaVuSans-52" transform="translate(502.234375 0)"/>
       <use xlink:href="#DejaVuSans-51" transform="translate(563.421875 0)"/>
       <use xlink:href="#DejaVuSans-3" transform="translate(626.796875 0)"/>
       <use xlink:href="#DejaVuSans-10" transform="translate(658.578125 0)"/>
       <use xlink:href="#DejaVuSans-21" transform="translate(694.65625 0)"/>
       <use xlink:href="#DejaVuSans-3" transform="translate(778.453125 0)"/>
       <use xlink:href="#DejaVuSans-4e" transform="translate(810.234375 0)"/>
       <use xlink:href="#DejaVuSans-44" transform="translate(866.390625 0)"/>
       <use xlink:href="#DejaVuSans-4a" transform="translate(927.671875 0)"/>
       <use xlink:href="#DejaVuSans-4a" transform="translate(991.15625 0)"/>
       <use xlink:href="#DejaVuSans-4f" transform="translate(1054.640625 0)"/>
       <use xlink:href="#DejaVuSans-48" transform="translate(1082.421875 0)"/>
       <use xlink:href="#DejaVuSans-42" transform="translate(1143.953125 0)"/>
       <use xlink:href="#DejaVuSans-4b" transform="translate(1193.953125 0)"/>
       <use xlink:href="#DejaVuSans-4c" transform="translate(1257.328125 0)"/>
       <use xlink:href="#DejaVuSans-51" transform="translate(1285.109375 0)"/>
       <use xlink:href="#DejaVuSans-4a" transform="translate(1348.484375 0)"/>
       <use xlink:href="#DejaVuSans-4f" transform="translate(1411.96875 0)"/>
       <use xlink:href="#DejaVuSans-4c" transform="translate(1439.75 0)"/>
       <use xlink:href="#DejaVuSans-56" transform="translate(1467.53125 0)"/>
       <use xlink:href="#DejaVuSans-4b" transform="translate(1519.625 0)"/>
       <use xlink:href="#DejaVuSans-42" transform="translate(1583 0)"/>
       <use xlink:href="#DejaVuSans-4b" transform="translate(1633 0)"/>
       <use xlink:href="#DejaVuSans-44" transform="translate(1696.375 0)"/>
       <use xlink:href="#DejaVuSans-57" transform="translate(1757.65625 0)"/>
       <use xlink:href="#DejaVuSans-48" transform="translate(1796.859375 0)"/>
      </g>
     </g>
    </g>
    <g id="ytick_3">
     <g id="line2d_11">
      <g>
       <use xlink:href="#m1a41981610" x="198.8475" y="218.673335" style="stroke: #000000; stroke-width: 0.8"/>
      </g>
     </g>
     <g id="text_12">
      <!-- cm_splits_codemixed -&gt; cm_splits_codemixed -->
      <g transform="translate(7.2 221.71271) scale(0.08 -0.08)">
       <defs>
        <path id="DejaVuSans-53" d="M 1159 525 
L 1159 -1331 
L 581 -1331 
L 581 3500 
L 1159 3500 
L 1159 2969 
Q 1341 3281 1617 3432 
Q 1894 3584 2278 3584 
Q 2916 3584 3314 3078 
Q 3713 2572 3713 1747 
Q 3713 922 3314 415 
Q 2916 -91 2278 -91 
Q 1894 -91 1617 61 
Q 1341 213 1159 525 
z
M 3116 1747 
Q 3116 2381 2855 2742 
Q 2594 3103 2138 3103 
Q 1681 3103 1420 2742 
Q 1159 2381 1159 1747 
Q 1159 1113 1420 752 
Q 1681 391 2138 391 
Q 2594 391 2855 752 
Q 3116 1113 3116 1747 
z
" transform="scale(0.015625)"/>
        <path id="DejaVuSans-47" d="M 2906 2969 
L 2906 4863 
L 3481 4863 
L 3481 0 
L 2906 0 
L 2906 525 
Q 2725 213 2448 61 
Q 2172 -91 1784 -91 
Q 1150 -91 751 415 
Q 353 922 353 1747 
Q 353 2572 751 3078 
Q 1150 3584 1784 3584 
Q 2172 3584 2448 3432 
Q 2725 3281 2906 2969 
z
M 947 1747 
Q 947 1113 1208 752 
Q 1469 391 1925 391 
Q 2381 391 2643 752 
Q 2906 1113 2906 1747 
Q 2906 2381 2643 2742 
Q 2381 3103 1925 3103 
Q 1469 3103 1208 2742 
Q 947 2381 947 1747 
z
" transform="scale(0.015625)"/>
        <path id="DejaVuSans-5b" d="M 3513 3500 
L 2247 1797 
L 3578 0 
L 2900 0 
L 1881 1375 
L 863 0 
L 184 0 
L 1544 1831 
L 300 3500 
L 978 3500 
L 1906 2253 
L 2834 3500 
L 3513 3500 
z
" transform="scale(0.015625)"/>
       </defs>
       <use xlink:href="#DejaVuSans-46"/>
       <use xlink:href="#DejaVuSans-50" transform="translate(54.984375 0)"/>
       <use xlink:href="#DejaVuSans-42" transform="translate(152.390625 0)"/>
       <use xlink:href="#DejaVuSans-56" transform="translate(202.390625 0)"/>
       <use xlink:href="#DejaVuSans-53" transform="translate(254.484375 0)"/>
       <use xlink:href="#DejaVuSans-4f" transform="translate(317.96875 0)"/>
       <use xlink:href="#DejaVuSans-4c" transform="translate(345.75 0)"/>
       <use xlink:href="#DejaVuSans-57" transform="translate(373.53125 0)"/>
       <use xlink:href="#DejaVuSans-56" transform="translate(412.734375 0)"/>
       <use xlink:href="#DejaVuSans-42" transform="translate(464.828125 0)"/>
       <use xlink:href="#DejaVuSans-46" transform="translate(514.828125 0)"/>
       <use xlink:href="#DejaVuSans-52" transform="translate(569.8125 0)"/>
       <use xlink:href="#DejaVuSans-47" transform="translate(631 0)"/>
       <use xlink:href="#DejaVuSans-48" transform="translate(694.484375 0)"/>
       <use xlink:href="#DejaVuSans-50" transform="translate(756.015625 0)"/>
       <use xlink:href="#DejaVuSans-4c" transform="translate(853.421875 0)"/>
       <use xlink:href="#DejaVuSans-5b" transform="translate(881.203125 0)"/>
       <use xlink:href="#DejaVuSans-48" transform="translate(937.3125 0)"/>
       <use xlink:href="#DejaVuSans-47" transform="translate(998.84375 0)"/>
       <use xlink:href="#DejaVuSans-3" transform="translate(1062.328125 0)"/>
       <use xlink:href="#DejaVuSans-10" transform="translate(1094.109375 0)"/>
       <use xlink:href="#DejaVuSans-21" transform="translate(1130.1875 0)"/>
       <use xlink:href="#DejaVuSans-3" transform="translate(1213.984375 0)"/>
       <use xlink:href="#DejaVuSans-46" transform="translate(1245.765625 0)"/>
       <use xlink:href="#DejaVuSans-50" transform="translate(1300.75 0)"/>
       <use xlink:href="#DejaVuSans-42" transform="translate(1398.15625 0)"/>
       <use xlink:href="#DejaVuSans-56" transform="translate(1448.15625 0)"/>
       <use xlink:href="#DejaVuSans-53" transform="translate(1500.25 0)"/>
       <use xlink:href="#DejaVuSans-4f" transform="translate(1563.734375 0)"/>
       <use xlink:href="#DejaVuSans-4c" transform="translate(1591.515625 0)"/>
       <use xlink:href="#DejaVuSans-57" transform="translate(1619.296875 0)"/>
       <use xlink:href="#DejaVuSans-56" transform="translate(1658.5 0)"/>
       <use xlink:href="#DejaVuSans-42" transform="translate(1710.59375 0)"/>
       <use xlink:href="#DejaVuSans-46" transform="translate(1760.59375 0)"/>
       <use xlink:href="#DejaVuSans-52" transform="translate(1815.578125 0)"/>
       <use xlink:href="#DejaVuSans-47" transform="translate(1876.765625 0)"/>
       <use xlink:href="#DejaVuSans-48" transform="translate(1940.25 0)"/>
       <use xlink:href="#DejaVuSans-50" transform="translate(2001.78125 0)"/>
       <use xlink:href="#DejaVuSans-4c" transform="translate(2099.1875 0)"/>
       <use xlink:href="#DejaVuSans-5b" transform="translate(2126.96875 0)"/>
       <use xlink:href="#DejaVuSans-48" transform="translate(2183.078125 0)"/>
       <use xlink:href="#DejaVuSans-47" transform="translate(2244.609375 0)"/>
      </g>
     </g>
    </g>
    <g id="ytick_4">
     <g id="line2d_12">
      <g>
       <use xlink:href="#m1a41981610" x="198.8475" y="189.966433" style="stroke: #000000; stroke-width: 0.8"/>
      </g>
     </g>
     <g id="text_13">
      <!-- kaggle_hinglish_hate -&gt; kaggle_hinglish_hate -->
      <g transform="translate(9.4675 193.005808) scale(0.08 -0.08)">
       <use xlink:href="#DejaVuSans-4e"/>
       <use xlink:href="#DejaVuSans-44" transform="translate(56.15625 0)"/>
       <use xlink:href="#DejaVuSans-4a" transform="translate(117.4375 0)"/>
       <use xlink:href="#DejaVuSans-4a" transform="translate(180.921875 0)"/>
       <use xlink:href="#DejaVuSans-4f" transform="translate(244.40625 0)"/>
       <use xlink:href="#DejaVuSans-48" transform="translate(272.1875 0)"/>
       <use xlink:href="#DejaVuSans-42" transform="translate(333.71875 0)"/>
       <use xlink:href="#DejaVuSans-4b" transform="translate(383.71875 0)"/>
       <use xlink:href="#DejaVuSans-4c" transform="translate(447.09375 0)"/>
       <use xlink:href="#DejaVuSans-51" transform="translate(474.875 0)"/>
       <use xlink:href="#DejaVuSans-4a" transform="translate(538.25 0)"/>
       <use xlink:href="#DejaVuSans-4f" transform="translate(601.734375 0)"/>
       <use xlink:href="#DejaVuSans-4c" transform="translate(629.515625 0)"/>
       <use xlink:href="#DejaVuSans-56" transform="translate(657.296875 0)"/>
       <use xlink:href="#DejaVuSans-4b" transform="translate(709.390625 0)"/>
       <use xlink:href="#DejaVuSans-42" transform="translate(772.765625 0)"/>
       <use xlink:href="#DejaVuSans-4b" transform="translate(822.765625 0)"/>
       <use xlink:href="#DejaVuSans-44" transform="translate(886.140625 0)"/>
       <use xlink:href="#DejaVuSans-57" transform="translate(947.421875 0)"/>
       <use xlink:href="#DejaVuSans-48" transform="translate(986.625 0)"/>
       <use xlink:href="#DejaVuSans-3" transform="translate(1048.15625 0)"/>
       <use xlink:href="#DejaVuSans-10" transform="translate(1079.9375 0)"/>
       <use xlink:href="#DejaVuSans-21" transform="translate(1116.015625 0)"/>
       <use xlink:href="#DejaVuSans-3" transform="translate(1199.8125 0)"/>
       <use xlink:href="#DejaVuSans-4e" transform="translate(1231.59375 0)"/>
       <use xlink:href="#DejaVuSans-44" transform="translate(1287.75 0)"/>
       <use xlink:href="#DejaVuSans-4a" transform="translate(1349.03125 0)"/>
       <use xlink:href="#DejaVuSans-4a" transform="translate(1412.515625 0)"/>
       <use xlink:href="#DejaVuSans-4f" transform="translate(1476 0)"/>
       <use xlink:href="#DejaVuSans-48" transform="translate(1503.78125 0)"/>
       <use xlink:href="#DejaVuSans-42" transform="translate(1565.3125 0)"/>
       <use xlink:href="#DejaVuSans-4b" transform="translate(1615.3125 0)"/>
       <use xlink:href="#DejaVuSans-4c" transform="translate(1678.6875 0)"/>
       <use xlink:href="#DejaVuSans-51" transform="translate(1706.46875 0)"/>
       <use xlink:href="#DejaVuSans-4a" transform="translate(1769.84375 0)"/>
       <use xlink:href="#DejaVuSans-4f" transform="translate(1833.328125 0)"/>
       <use xlink:href="#DejaVuSans-4c" transform="translate(1861.109375 0)"/>
       <use xlink:href="#DejaVuSans-56" transform="translate(1888.890625 0)"/>
       <use xlink:href="#DejaVuSans-4b" transform="translate(1940.984375 0)"/>
       <use xlink:href="#DejaVuSans-42" transform="translate(2004.359375 0)"/>
       <use xlink:href="#DejaVuSans-4b" transform="translate(2054.359375 0)"/>
       <use xlink:href="#DejaVuSans-44" transform="translate(2117.734375 0)"/>
       <use xlink:href="#DejaVuSans-57" transform="translate(2179.015625 0)"/>
       <use xlink:href="#DejaVuSans-48" transform="translate(2218.21875 0)"/>
      </g>
     </g>
    </g>
    <g id="ytick_5">
     <g id="line2d_13">
      <g>
       <use xlink:href="#m1a41981610" x="198.8475" y="161.259531" style="stroke: #000000; stroke-width: 0.8"/>
      </g>
     </g>
     <g id="text_14">
      <!-- thar_religion -&gt; cm_splits_codemixed -->
      <g transform="translate(42.0425 164.298906) scale(0.08 -0.08)">
       <use xlink:href="#DejaVuSans-57"/>
       <use xlink:href="#DejaVuSans-4b" transform="translate(39.203125 0)"/>
       <use xlink:href="#DejaVuSans-44" transform="translate(102.578125 0)"/>
       <use xlink:href="#DejaVuSans-55" transform="translate(163.859375 0)"/>
       <use xlink:href="#DejaVuSans-42" transform="translate(204.96875 0)"/>
       <use xlink:href="#DejaVuSans-55" transform="translate(254.96875 0)"/>
       <use xlink:href="#DejaVuSans-48" transform="translate(293.875 0)"/>
       <use xlink:href="#DejaVuSans-4f" transform="translate(355.40625 0)"/>
       <use xlink:href="#DejaVuSans-4c" transform="translate(383.1875 0)"/>
       <use xlink:href="#DejaVuSans-4a" transform="translate(410.96875 0)"/>
       <use xlink:href="#DejaVuSans-4c" transform="translate(474.453125 0)"/>
       <use xlink:href="#DejaVuSans-52" transform="translate(502.234375 0)"/>
       <use xlink:href="#DejaVuSans-51" transform="translate(563.421875 0)"/>
       <use xlink:href="#DejaVuSans-3" transform="translate(626.796875 0)"/>
       <use xlink:href="#DejaVuSans-10" transform="translate(658.578125 0)"/>
       <use xlink:href="#DejaVuSans-21" transform="translate(694.65625 0)"/>
       <use xlink:href="#DejaVuSans-3" transform="translate(778.453125 0)"/>
       <use xlink:href="#DejaVuSans-46" transform="translate(810.234375 0)"/>
       <use xlink:href="#DejaVuSans-50" transform="translate(865.21875 0)"/>
       <use xlink:href="#DejaVuSans-42" transform="translate(962.625 0)"/>
       <use xlink:href="#DejaVuSans-56" transform="translate(1012.625 0)"/>
       <use xlink:href="#DejaVuSans-53" transform="translate(1064.71875 0)"/>
       <use xlink:href="#DejaVuSans-4f" transform="translate(1128.203125 0)"/>
       <use xlink:href="#DejaVuSans-4c" transform="translate(1155.984375 0)"/>
       <use xlink:href="#DejaVuSans-57" transform="translate(1183.765625 0)"/>
       <use xlink:href="#DejaVuSans-56" transform="translate(1222.96875 0)"/>
       <use xlink:href="#DejaVuSans-42" transform="translate(1275.0625 0)"/>
       <use xlink:href="#DejaVuSans-46" transform="translate(1325.0625 0)"/>
       <use xlink:href="#DejaVuSans-52" transform="translate(1380.046875 0)"/>
       <use xlink:href="#DejaVuSans-47" transform="translate(1441.234375 0)"/>
       <use xlink:href="#DejaVuSans-48" transform="translate(1504.71875 0)"/>
       <use xlink:href="#DejaVuSans-50" transform="translate(1566.25 0)"/>
       <use xlink:href="#DejaVuSans-4c" transform="translate(1663.65625 0)"/>
       <use xlink:href="#DejaVuSans-5b" transform="translate(1691.4375 0)"/>
       <use xlink:href="#DejaVuSans-48" transform="translate(1747.546875 0)"/>
       <use xlink:href="#DejaVuSans-47" transform="translate(1809.078125 0)"/>
      </g>
     </g>
    </g>
    <g id="ytick_6">
     <g id="line2d_14">
      <g>
       <use xlink:href="#m1a41981610" x="198.8475" y="132.552629" style="stroke: #000000; stroke-width: 0.8"/>
      </g>
     </g>
     <g id="text_15">
      <!-- cm_splits_codemixed -&gt; kaggle_hinglish_hate -->
      <g transform="translate(8.33375 135.592004) scale(0.08 -0.08)">
       <use xlink:href="#DejaVuSans-46"/>
       <use xlink:href="#DejaVuSans-50" transform="translate(54.984375 0)"/>
       <use xlink:href="#DejaVuSans-42" transform="translate(152.390625 0)"/>
       <use xlink:href="#DejaVuSans-56" transform="translate(202.390625 0)"/>
       <use xlink:href="#DejaVuSans-53" transform="translate(254.484375 0)"/>
       <use xlink:href="#DejaVuSans-4f" transform="translate(317.96875 0)"/>
       <use xlink:href="#DejaVuSans-4c" transform="translate(345.75 0)"/>
       <use xlink:href="#DejaVuSans-57" transform="translate(373.53125 0)"/>
       <use xlink:href="#DejaVuSans-56" transform="translate(412.734375 0)"/>
       <use xlink:href="#DejaVuSans-42" transform="translate(464.828125 0)"/>
       <use xlink:href="#DejaVuSans-46" transform="translate(514.828125 0)"/>
       <use xlink:href="#DejaVuSans-52" transform="translate(569.8125 0)"/>
       <use xlink:href="#DejaVuSans-47" transform="translate(631 0)"/>
       <use xlink:href="#DejaVuSans-48" transform="translate(694.484375 0)"/>
       <use xlink:href="#DejaVuSans-50" transform="translate(756.015625 0)"/>
       <use xlink:href="#DejaVuSans-4c" transform="translate(853.421875 0)"/>
       <use xlink:href="#DejaVuSans-5b" transform="translate(881.203125 0)"/>
       <use xlink:href="#DejaVuSans-48" transform="translate(937.3125 0)"/>
       <use xlink:href="#DejaVuSans-47" transform="translate(998.84375 0)"/>
       <use xlink:href="#DejaVuSans-3" transform="translate(1062.328125 0)"/>
       <use xlink:href="#DejaVuSans-10" transform="translate(1094.109375 0)"/>
       <use xlink:href="#DejaVuSans-21" transform="translate(1130.1875 0)"/>
       <use xlink:href="#DejaVuSans-3" transform="translate(1213.984375 0)"/>
       <use xlink:href="#DejaVuSans-4e" transform="translate(1245.765625 0)"/>
       <use xlink:href="#DejaVuSans-44" transform="translate(1301.921875 0)"/>
       <use xlink:href="#DejaVuSans-4a" transform="translate(1363.203125 0)"/>
       <use xlink:href="#DejaVuSans-4a" transform="translate(1426.6875 0)"/>
       <use xlink:href="#DejaVuSans-4f" transform="translate(1490.171875 0)"/>
       <use xlink:href="#DejaVuSans-48" transform="translate(1517.953125 0)"/>
       <use xlink:href="#DejaVuSans-42" transform="translate(1579.484375 0)"/>
       <use xlink:href="#DejaVuSans-4b" transform="translate(1629.484375 0)"/>
       <use xlink:href="#DejaVuSans-4c" transform="translate(1692.859375 0)"/>
       <use xlink:href="#DejaVuSans-51" transform="translate(1720.640625 0)"/>
       <use xlink:href="#DejaVuSans-4a" transform="translate(1784.015625 0)"/>
       <use xlink:href="#DejaVuSans-4f" transform="translate(1847.5 0)"/>
       <use xlink:href="#DejaVuSans-4c" transform="translate(1875.28125 0)"/>
       <use xlink:href="#DejaVuSans-56" transform="translate(1903.0625 0)"/>
       <use xlink:href="#DejaVuSans-4b" transform="translate(1955.15625 0)"/>
       <use xlink:href="#DejaVuSans-42" transform="translate(2018.53125 0)"/>
       <use xlink:href="#DejaVuSans-4b" transform="translate(2068.53125 0)"/>
       <use xlink:href="#DejaVuSans-44" transform="translate(2131.90625 0)"/>
       <use xlink:href="#DejaVuSans-57" transform="translate(2193.1875 0)"/>
       <use xlink:href="#DejaVuSans-48" transform="translate(2232.390625 0)"/>
      </g>
     </g>
    </g>
    <g id="ytick_7">
     <g id="line2d_15">
      <g>
       <use xlink:href="#m1a41981610" x="198.8475" y="103.845727" style="stroke: #000000; stroke-width: 0.8"/>
      </g>
     </g>
     <g id="text_16">
      <!-- cm_splits_codemixed -&gt; thar_religion -->
      <g transform="translate(42.0425 106.885102) scale(0.08 -0.08)">
       <use xlink:href="#DejaVuSans-46"/>
       <use xlink:href="#DejaVuSans-50" transform="translate(54.984375 0)"/>
       <use xlink:href="#DejaVuSans-42" transform="translate(152.390625 0)"/>
       <use xlink:href="#DejaVuSans-56" transform="translate(202.390625 0)"/>
       <use xlink:href="#DejaVuSans-53" transform="translate(254.484375 0)"/>
       <use xlink:href="#DejaVuSans-4f" transform="translate(317.96875 0)"/>
       <use xlink:href="#DejaVuSans-4c" transform="translate(345.75 0)"/>
       <use xlink:href="#DejaVuSans-57" transform="translate(373.53125 0)"/>
       <use xlink:href="#DejaVuSans-56" transform="translate(412.734375 0)"/>
       <use xlink:href="#DejaVuSans-42" transform="translate(464.828125 0)"/>
       <use xlink:href="#DejaVuSans-46" transform="translate(514.828125 0)"/>
       <use xlink:href="#DejaVuSans-52" transform="translate(569.8125 0)"/>
       <use xlink:href="#DejaVuSans-47" transform="translate(631 0)"/>
       <use xlink:href="#DejaVuSans-48" transform="translate(694.484375 0)"/>
       <use xlink:href="#DejaVuSans-50" transform="translate(756.015625 0)"/>
       <use xlink:href="#DejaVuSans-4c" transform="translate(853.421875 0)"/>
       <use xlink:href="#DejaVuSans-5b" transform="translate(881.203125 0)"/>
       <use xlink:href="#DejaVuSans-48" transform="translate(937.3125 0)"/>
       <use xlink:href="#DejaVuSans-47" transform="translate(998.84375 0)"/>
       <use xlink:href="#DejaVuSans-3" transform="translate(1062.328125 0)"/>
       <use xlink:href="#DejaVuSans-10" transform="translate(1094.109375 0)"/>
       <use xlink:href="#DejaVuSans-21" transform="translate(1130.1875 0)"/>
       <use xlink:href="#DejaVuSans-3" transform="translate(1213.984375 0)"/>
       <use xlink:href="#DejaVuSans-57" transform="translate(1245.765625 0)"/>
       <use xlink:href="#DejaVuSans-4b" transform="translate(1284.96875 0)"/>
       <use xlink:href="#DejaVuSans-44" transform="translate(1348.34375 0)"/>
       <use xlink:href="#DejaVuSans-55" transform="translate(1409.625 0)"/>
       <use xlink:href="#DejaVuSans-42" transform="translate(1450.734375 0)"/>
       <use xlink:href="#DejaVuSans-55" transform="translate(1500.734375 0)"/>
       <use xlink:href="#DejaVuSans-48" transform="translate(1539.640625 0)"/>
       <use xlink:href="#DejaVuSans-4f" transform="translate(1601.171875 0)"/>
       <use xlink:href="#DejaVuSans-4c" transform="translate(1628.953125 0)"/>
       <use xlink:href="#DejaVuSans-4a" transform="translate(1656.734375 0)"/>
       <use xlink:href="#DejaVuSans-4c" transform="translate(1720.21875 0)"/>
       <use xlink:href="#DejaVuSans-52" transform="translate(1748 0)"/>
       <use xlink:href="#DejaVuSans-51" transform="translate(1809.1875 0)"/>
      </g>
     </g>
    </g>
    <g id="ytick_8">
     <g id="line2d_16">
      <g>
       <use xlink:href="#m1a41981610" x="198.8475" y="75.138825" style="stroke: #000000; stroke-width: 0.8"/>
      </g>
     </g>
     <g id="text_17">
      <!-- thar_religion -&gt; thar_religion -->
      <g transform="translate(76.885 78.1782) scale(0.08 -0.08)">
       <use xlink:href="#DejaVuSans-57"/>
       <use xlink:href="#DejaVuSans-4b" transform="translate(39.203125 0)"/>
       <use xlink:href="#DejaVuSans-44" transform="translate(102.578125 0)"/>
       <use xlink:href="#DejaVuSans-55" transform="translate(163.859375 0)"/>
       <use xlink:href="#DejaVuSans-42" transform="translate(204.96875 0)"/>
       <use xlink:href="#DejaVuSans-55" transform="translate(254.96875 0)"/>
       <use xlink:href="#DejaVuSans-48" transform="translate(293.875 0)"/>
       <use xlink:href="#DejaVuSans-4f" transform="translate(355.40625 0)"/>
       <use xlink:href="#DejaVuSans-4c" transform="translate(383.1875 0)"/>
       <use xlink:href="#DejaVuSans-4a" transform="translate(410.96875 0)"/>
       <use xlink:href="#DejaVuSans-4c" transform="translate(474.453125 0)"/>
       <use xlink:href="#DejaVuSans-52" transform="translate(502.234375 0)"/>
       <use xlink:href="#DejaVuSans-51" transform="translate(563.421875 0)"/>
       <use xlink:href="#DejaVuSans-3" transform="translate(626.796875 0)"/>
       <use xlink:href="#DejaVuSans-10" transform="translate(658.578125 0)"/>
       <use xlink:href="#DejaVuSans-21" transform="translate(694.65625 0)"/>
       <use xlink:href="#DejaVuSans-3" transform="translate(778.453125 0)"/>
       <use xlink:href="#DejaVuSans-57" transform="translate(810.234375 0)"/>
       <use xlink:href="#DejaVuSans-4b" transform="translate(849.4375 0)"/>
       <use xlink:href="#DejaVuSans-44" transform="translate(912.8125 0)"/>
       <use xlink:href="#DejaVuSans-55" transform="translate(974.09375 0)"/>
       <use xlink:href="#DejaVuSans-42" transform="translate(1015.203125 0)"/>
       <use xlink:href="#DejaVuSans-55" transform="translate(1065.203125 0)"/>
       <use xlink:href="#DejaVuSans-48" transform="translate(1104.109375 0)"/>
       <use xlink:href="#DejaVuSans-4f" transform="translate(1165.640625 0)"/>
       <use xlink:href="#DejaVuSans-4c" transform="translate(1193.421875 0)"/>
       <use xlink:href="#DejaVuSans-4a" transform="translate(1221.203125 0)"/>
       <use xlink:href="#DejaVuSans-4c" transform="translate(1284.6875 0)"/>
       <use xlink:href="#DejaVuSans-52" transform="translate(1312.46875 0)"/>
       <use xlink:href="#DejaVuSans-51" transform="translate(1373.65625 0)"/>
      </g>
     </g>
    </g>
    <g id="ytick_9">
     <g id="line2d_17">
      <g>
       <use xlink:href="#m1a41981610" x="198.8475" y="46.431923" style="stroke: #000000; stroke-width: 0.8"/>
      </g>
     </g>
     <g id="text_18">
      <!-- kaggle_hinglish_hate -&gt; cm_splits_codemixed -->
      <g transform="translate(8.33375 49.471298) scale(0.08 -0.08)">
       <use xlink:href="#DejaVuSans-4e"/>
       <use xlink:href="#DejaVuSans-44" transform="translate(56.15625 0)"/>
       <use xlink:href="#DejaVuSans-4a" transform="translate(117.4375 0)"/>
       <use xlink:href="#DejaVuSans-4a" transform="translate(180.921875 0)"/>
       <use xlink:href="#DejaVuSans-4f" transform="translate(244.40625 0)"/>
       <use xlink:href="#DejaVuSans-48" transform="translate(272.1875 0)"/>
       <use xlink:href="#DejaVuSans-42" transform="translate(333.71875 0)"/>
       <use xlink:href="#DejaVuSans-4b" transform="translate(383.71875 0)"/>
       <use xlink:href="#DejaVuSans-4c" transform="translate(447.09375 0)"/>
       <use xlink:href="#DejaVuSans-51" transform="translate(474.875 0)"/>
       <use xlink:href="#DejaVuSans-4a" transform="translate(538.25 0)"/>
       <use xlink:href="#DejaVuSans-4f" transform="translate(601.734375 0)"/>
       <use xlink:href="#DejaVuSans-4c" transform="translate(629.515625 0)"/>
       <use xlink:href="#DejaVuSans-56" transform="translate(657.296875 0)"/>
       <use xlink:href="#DejaVuSans-4b" transform="translate(709.390625 0)"/>
       <use xlink:href="#DejaVuSans-42" transform="translate(772.765625 0)"/>
       <use xlink:href="#DejaVuSans-4b" transform="translate(822.765625 0)"/>
       <use xlink:href="#DejaVuSans-44" transform="translate(886.140625 0)"/>
       <use xlink:href="#DejaVuSans-57" transform="translate(947.421875 0)"/>
       <use xlink:href="#DejaVuSans-48" transform="translate(986.625 0)"/>
       <use xlink:href="#DejaVuSans-3" transform="translate(1048.15625 0)"/>
       <use xlink:href="#DejaVuSans-10" transform="translate(1079.9375 0)"/>
       <use xlink:href="#DejaVuSans-21" transform="translate(1116.015625 0)"/>
       <use xlink:href="#DejaVuSans-3" transform="translate(1199.8125 0)"/>
       <use xlink:href="#DejaVuSans-46" transform="translate(1231.59375 0)"/>
       <use xlink:href="#DejaVuSans-50" transform="translate(1286.578125 0)"/>
       <use xlink:href="#DejaVuSans-42" transform="translate(1383.984375 0)"/>
       <use xlink:href="#DejaVuSans-56" transform="translate(1433.984375 0)"/>
       <use xlink:href="#DejaVuSans-53" transform="translate(1486.078125 0)"/>
       <use xlink:href="#DejaVuSans-4f" transform="translate(1549.5625 0)"/>
       <use xlink:href="#DejaVuSans-4c" transform="translate(1577.34375 0)"/>
       <use xlink:href="#DejaVuSans-57" transform="translate(1605.125 0)"/>
       <use xlink:href="#DejaVuSans-56" transform="translate(1644.328125 0)"/>
       <use xlink:href="#DejaVuSans-42" transform="translate(1696.421875 0)"/>
       <use xlink:href="#DejaVuSans-46" transform="translate(1746.421875 0)"/>
       <use xlink:href="#DejaVuSans-52" transform="translate(1801.40625 0)"/>
       <use xlink:href="#DejaVuSans-47" transform="translate(1862.59375 0)"/>
       <use xlink:href="#DejaVuSans-48" transform="translate(1926.078125 0)"/>
       <use xlink:href="#DejaVuSans-50" transform="translate(1987.609375 0)"/>
       <use xlink:href="#DejaVuSans-4c" transform="translate(2085.015625 0)"/>
       <use xlink:href="#DejaVuSans-5b" transform="translate(2112.796875 0)"/>
       <use xlink:href="#DejaVuSans-48" transform="translate(2168.90625 0)"/>
       <use xlink:href="#DejaVuSans-47" transform="translate(2230.4375 0)"/>
      </g>
     </g>
    </g>
   </g>
   <g id="line2d_18">
    <path d="M 336.146458 300.200937 
L 336.146458 22.318125 
" clip-path="url(#p7d4b6c045b)" style="fill: none; stroke: #5f6670; stroke-linecap: square"/>
   </g>
   <g id="patch_12">
    <path d="M 198.8475 300.200937 
L 198.8475 22.318125 
" style="fill: none; stroke: #000000; stroke-width: 0.8; stroke-linejoin: miter; stroke-linecap: square"/>
   </g>
   <g id="patch_13">
    <path d="M 629.768251 300.200937 
L 629.768251 22.318125 
" style="fill: none; stroke: #000000; stroke-width: 0.8; stroke-linejoin: miter; stroke-linecap: square"/>
   </g>
   <g id="patch_14">
    <path d="M 198.8475 300.200937 
L 629.768251 300.200937 
" style="fill: none; stroke: #000000; stroke-width: 0.8; stroke-linejoin: miter; stroke-linecap: square"/>
   </g>
   <g id="patch_15">
    <path d="M 198.8475 22.318125 
L 629.768251 22.318125 
" style="fill: none; stroke: #000000; stroke-width: 0.8; stroke-linejoin: miter; stroke-linecap: square"/>
   </g>
   <g id="text_19">
    <!-- Transformer Advantage Over TF-IDF Baselines -->
    <g transform="translate(276.190688 16.318125) scale(0.12 -0.12)">
     <defs>
      <path id="DejaVuSans-24" d="M 2188 4044 
L 1331 1722 
L 3047 1722 
L 2188 4044 
z
M 1831 4666 
L 2547 4666 
L 4325 0 
L 3669 0 
L 3244 1197 
L 1141 1197 
L 716 0 
L 50 0 
L 1831 4666 
z
" transform="scale(0.015625)"/>
      <path id="DejaVuSans-59" d="M 191 3500 
L 800 3500 
L 1894 563 
L 2988 3500 
L 3597 3500 
L 2284 0 
L 1503 0 
L 191 3500 
z
" transform="scale(0.015625)"/>
      <path id="DejaVuSans-32" d="M 2522 4238 
Q 1834 4238 1429 3725 
Q 1025 3213 1025 2328 
Q 1025 1447 1429 934 
Q 1834 422 2522 422 
Q 3209 422 3611 934 
Q 4013 1447 4013 2328 
Q 4013 3213 3611 3725 
Q 3209 4238 2522 4238 
z
M 2522 4750 
Q 3503 4750 4090 4092 
Q 4678 3434 4678 2328 
Q 4678 1225 4090 567 
Q 3503 -91 2522 -91 
Q 1538 -91 948 565 
Q 359 1222 359 2328 
Q 359 3434 948 4092 
Q 1538 4750 2522 4750 
z
" transform="scale(0.015625)"/>
     </defs>
     <use xlink:href="#DejaVuSans-37"/>
     <use xlink:href="#DejaVuSans-55" transform="translate(46.375 0)"/>
     <use xlink:href="#DejaVuSans-44" transform="translate(87.484375 0)"/>
     <use xlink:href="#DejaVuSans-51" transform="translate(148.765625 0)"/>
     <use xlink:href="#DejaVuSans-56" transform="translate(212.140625 0)"/>
     <use xlink:href="#DejaVuSans-49" transform="translate(264.234375 0)"/>
     <use xlink:href="#DejaVuSans-52" transform="translate(299.4375 0)"/>
     <use xlink:href="#DejaVuSans-55" transform="translate(360.625 0)"/>
     <use xlink:href="#DejaVuSans-50" transform="translate(399.984375 0)"/>
     <use xlink:href="#DejaVuSans-48" transform="translate(497.390625 0)"/>
     <use xlink:href="#DejaVuSans-55" transform="translate(558.921875 0)"/>
     <use xlink:href="#DejaVuSans-3" transform="translate(600.03125 0)"/>
     <use xlink:href="#DejaVuSans-24" transform="translate(631.8125 0)"/>
     <use xlink:href="#DejaVuSans-47" transform="translate(698.46875 0)"/>
     <use xlink:href="#DejaVuSans-59" transform="translate(761.953125 0)"/>
     <use xlink:href="#DejaVuSans-44" transform="translate(821.140625 0)"/>
     <use xlink:href="#DejaVuSans-51" transform="translate(882.421875 0)"/>
     <use xlink:href="#DejaVuSans-57" transform="translate(945.796875 0)"/>
     <use xlink:href="#DejaVuSans-44" transform="translate(985 0)"/>
     <use xlink:href="#DejaVuSans-4a" transform="translate(1046.28125 0)"/>
     <use xlink:href="#DejaVuSans-48" transform="translate(1109.765625 0)"/>
     <use xlink:href="#DejaVuSans-3" transform="translate(1171.296875 0)"/>
     <use xlink:href="#DejaVuSans-32" transform="translate(1203.078125 0)"/>
     <use xlink:href="#DejaVuSans-59" transform="translate(1281.796875 0)"/>
     <use xlink:href="#DejaVuSans-48" transform="translate(1340.984375 0)"/>
     <use xlink:href="#DejaVuSans-55" transform="translate(1402.515625 0)"/>
     <use xlink:href="#DejaVuSans-3" transform="translate(1443.625 0)"/>
     <use xlink:href="#DejaVuSans-37" transform="translate(1475.40625 0)"/>
     <use xlink:href="#DejaVuSans-29" transform="translate(1536.484375 0)"/>
     <use xlink:href="#DejaVuSans-10" transform="translate(1594 0)"/>
     <use xlink:href="#DejaVuSans-2c" transform="translate(1630.078125 0)"/>
     <use xlink:href="#DejaVuSans-27" transform="translate(1659.578125 0)"/>
     <use xlink:href="#DejaVuSans-29" transform="translate(1736.578125 0)"/>
     <use xlink:href="#DejaVuSans-3" transform="translate(1794.09375 0)"/>
     <use xlink:href="#DejaVuSans-25" transform="translate(1825.875 0)"/>
     <use xlink:href="#DejaVuSans-44" transform="translate(1894.484375 0)"/>
     <use xlink:href="#DejaVuSans-56" transform="translate(1955.765625 0)"/>
     <use xlink:href="#DejaVuSans-48" transform="translate(2007.859375 0)"/>
     <use xlink:href="#DejaVuSans-4f" transform="translate(2069.390625 0)"/>
     <use xlink:href="#DejaVuSans-4c" transform="translate(2097.171875 0)"/>
     <use xlink:href="#DejaVuSans-51" transform="translate(2124.953125 0)"/>
     <use xlink:href="#DejaVuSans-48" transform="translate(2188.328125 0)"/>
     <use xlink:href="#DejaVuSans-56" transform="translate(2249.859375 0)"/>
    </g>
   </g>
  </g>
 </g>
 <defs>
  <clipPath id="p7d4b6c045b">
   <rect x="198.8475" y="22.318125" width="430.920751" height="277.882812"/>
  </clipPath>
 </defs>
</svg>
